<?xml version="1.0" encoding="UTF-8"?>
<!DOCTYPE svg  PUBLIC '-//W3C//DTD SVG 1.1//EN'  'http://www.w3.org/Graphics/SVG/1.1/DTD/svg11.dtd'>
<svg enable-background="new -26.2338 -11.8872 1972.4677 893.7744" version="1.1" viewBox="-26.2338 -11.8872 1972.4677 893.7744" xml:space="preserve" xmlns="http://www.w3.org/2000/svg">
	<path d="m754.46 26.3c5.77-4.16 12.21-8.23 19.53-8.56 11.86-0.38 23.35 3.97 33.38 10.02 14.25 8.58 26.21 20.39 37.3 32.67 24.56 28 44.42 59.7 63.11 91.81 25.39 44.05 47.91 89.68 70.15 135.38 6.78-6.37 13.81-12.49 20.43-19.03 1.52-29.5 3.66-58.97 5.01-88.48-2.29-0.98-3.8-2.87-4.62-5.17 0.94-1.99 1.91-4.56 4.46-4.8 3.48-0.87 6.89 3.07 5.48 6.38-0.46 2.01-2.56 2.71-4.1 3.66 0.29 5.24 0.21 10.5 0.58 15.74 6.28 0.36 13.01 0.22 18.7 3.3 1.72 0.82 1.9301 2.77 2.3 4.42 2.9099 4.09 8.11 5.38 12.77 6.31 7.5601 1.21 15.43 1.79 22.95-0.02-0.26 0.44-0.78 1.32-1.04 1.76-6.7999 5.99-16.05 8.3-24.93 8.38-3.41-0.11-6.9801-0.37-9.9701-2.17-0.3199-1.68-0.9099-3.75-2.97-3.92-5.69-0.66-11.37 0.37-16.99 1.13 0.68 17.91 1.45 35.84 2.21 53.76 17.05 18.82 36 35.89 56.19 51.28 10.66-20.47 21.03-41.26 34.85-59.83 6.11-7.85 12.83-15.84 21.99-20.21 9.62-4.43 20.25-0.12 29.57 3.1 22.57 9.02 43.66 21.27 64.94 32.93 1.12-17.92 2.14-35.85 3.23-53.78-2.4399-0.85-4.52-3.19-3.48-5.9 0.92-3.73 6.72-3.85 7.92-0.22 1.39 2.65-1.04 5.26-3.4301 6.13-0.0599 4.59 0.3101 9.17 0.3301 13.76 5.99 0.23 12.65 0.08 17.71 3.81 0.3199 2.5 1.6 4.84 4.04 5.85 8.8999 4.04 19.09 4.07 28.62 2.81-7.5601 7.98-19.86 9.79-30.22 7.62-2.21-0.27-2.22-2.91-3.6499-4.1-5.2401-1.07-10.57 0.31-15.81 0.65 0.4 8.95 0.98 17.89 1.23 26.86 18.64 10.26 37.43 20.29 56.74 29.26 18.17 8.27 36.9 15.83 56.65 19.35 9.95 1.6 20.3 1.85 30.12-0.73-15.1-7.77-29.68-16.71-42.62-27.75-15.08-12.69-28.01-28.08-37.26-45.52-9.45-17.68-14.9-37.42-16.22-57.4-2.49-40.93 11.07-82.59 36.95-114.36 12.79-15.37 29.1-29.01 48.84-34.01 17.23-3.83 35.44 0.12 50.94 8.09 17.84 9.24 32.43 23.87 43.68 40.37 22.8 33.9 32.79 76.24 27.33 116.74-3.1901 22.29-11.39 43.97-24.59 62.29-16.74 23.68-41.19 40.99-67.67 52.26 42.22 17.08 87.51 25.18 132.76 28.71 26.31 2.19 52.74 2.53 79.14 2.12 12.62 0.13 25.41 0.74 37.62 4.24 5.77 1.87 11.94 4.59 15.05 10.13 2.88 5.45 0.9301 12.07-2.48 16.8-6.2999 8.9-15.37 15.32-24.35 21.28 1.1 2.36 1.64 5.14 3.41 7.12 41.55 9.7 82.94 20.11 124.63 29.19 22.9 4.92 45.9 9.39 69.09 12.64 23.84 2.92 48.19 5.64 72.04 1.39 3.6699-0.55 7.22-2.06 11-1.88 6.9 0.06 13.34 5.14 15.17 11.77 1.38 4.72 0.54 10.07-2.4099 14.04-22.05 30.49-48.57 58.19-80.18 78.85-11.64 7.59-23.97 14.1-36.84 19.35 20.24 28.32 41.32 56.6 68.23 79.01 13.63 11.49 28.7 21.16 44.42 29.53 8.73 4.87 10.38 18.24 3.2899 25.21-4.9099 5.4901-12.76 5.48-19.5 6.42-12.68 1.73-25.45 0.21-38.06-1.29-24.82-3.53-49.01-10.41-72.84-18.02-61.36-20.06-120.49-46.18-181.32-67.69-18.66-6.41-37.45-12.83-56.95-16.16-7.2201-0.8-15.25-2.2-21.85 1.7 6.65 21.57 15.04 42.54 21.91 64.03 4.34 16 2.14 33.66-6.2899 47.97-8.6001 14.93-21.85 26.55-35.99 36.09-19.8 13.23-41.74 22.84-64.04 31-42.42 15.22-86.6 24.85-130.9 32.74-98.37 16.8-198.18 23.72-297.84 26.16-107.16 2.05-214.51-1.65-321.05-13.67-33.81-3.95-67.53-8.75-101-15-35.92-6.8-71.66-15.04-106.3-26.85-18.36-6.37-36.46-13.69-53.51-23.06-15.74-8.67-30.83-19.12-42.49-32.95-7.24-8.74-12.98-19.02-15.09-30.25-2.02-10.3-1.2-21.08 1.98-31.04 7.2-21.63 14.6-43.19 21.53-64.9-2.22-1.33-4.67-2.22-7.25-2.42-10.06-0.84-19.96 1.61-29.68 3.87-22.47 5.91-44.33 13.87-66.06 22.03-58.98 22.08-116.8 47.51-177.24 65.48-21.42 6.17-43.24 11.4-65.5 13.26-12.49 1.05-25.21 0.75-37.41-2.29-7.9-2.21-12.76-11-11.05-18.92 0.99-5.37 5.02-9.73 9.89-11.96 32.14-16.86 61.66-39.25 84.63-67.5 11-13.29 20.61-27.67 29.4-42.5-31.49-17.9-63.65-35.61-90.17-60.66-11.27-10.45-21.47-22.05-30.5-34.49-4.44-5.72-4.15-14.48 0.44-20.03 4.03-5.05 11.11-7.24 17.3-5.43 18.02 4.57 36.82 3.74 55.19 2.49 46.79-4.41 92.66-15.1 138.36-25.63 42.73-10.04 85.32-20.75 128.4-29.2 25.74-4.74 51.74-9.19 77.99-9.16-3.14-3.35-6.51-6.46-9.65-9.81-5.67 2.46-11.4 4.83-17.19 6.95-6.84-2.71-13.88-5.11-20.46-8.39-0.42-5.41-0.75-10.83-0.99-16.25 1.47-5.1 0.31-10.6 0.65-15.87-0.66 0.09-1.99 0.27-2.65 0.36 0.89-2.27 2.02-4.44 3.02-6.66 3.7-1.57 7.26-3.43 10.67-5.54-9.54-26.28-10.26-55.61-2.57-82.45-3.11-1.38-6.28-2.61-9.48-3.76-0.42-5.55-1.03-11.11-0.99-16.67 0.15-0.35 0.44-1.06 0.59-1.42 0.08-4.75-0.02-9.49 0.08-14.24-0.75 0.02-2.25 0.04-3 0.06 1.17-2.22 2.25-4.49 3.55-6.63 7.02-3.32 14.14-7.15 19.29-13.09 0.07-3.21 0.89-6.61-0.51-9.63 1.08-0.67 2.25-1.22 3.13 0.11-0.3 0.87-0.62 1.74-0.95 2.6 1.56 0.29 3.85-0.43 4.55 1.53 0.91 2.75 4.09 1.51 6.13 1.12-1.14 2.01-3.43 2.62-5.36 3.53-0.45-0.44-1.37-1.32-1.82-1.77l-2.72 0.2c-0.03 0.62-0.1 1.84-0.13 2.45 3.35 3.67 7.26 6.76 11.53 9.3 20.18-25.79 50.16-43.75 82.46-49.26 0-2.89-0.02-5.77 0.05-8.66-0.72 0.04-2.15 0.11-2.87 0.14 1.16-2.13 2.33-4.27 3.23-6.53 7.28-3 14.04-7.28 19.61-12.86-0.05-3.24 0.56-6.5-0.12-9.7 0.64-1.3 1.6-1.39 2.88-0.24-0.27 0.72-0.82 2.18-1.1 2.91 0.84 0.02 2.51 0.07 3.34 0.1 1.45 0.22 0.96 2.44 2.38 2.68 1.6 0.68 3.31-0.1 4.94-0.23-1.3 1.84-3.31 2.88-5.45 3.43-1.34-2.24-4.98-2.52-4.73 0.73 5.3 5.96 12.18 10.43 19.72 13.01 0.85 2.23 1.76 4.43 2.53 6.69-0.7-0.03-2.08-0.11-2.78-0.14-0.0099 2.62-0.02 5.24-0.04 7.87 33.98 4.36 65.81 22.55 87.14 49.31 19.47-33.04 39.59-65.71 60.98-97.53 12.82-18.95 26.06-37.64 40.49-55.4 10.69-12.93 21.79-25.78 35.23-35.94m22.75-1.05c0.5 94.15 0.41 188.3 0.35 282.45 2.57-2.5 5.31-4.83 7.81-7.41 1.59-1.27 0.83-3.49 1.14-5.23 1.46-24.23 2.94-48.46 4.26-72.7-2.62-0.9-5.02-4.04-3.09-6.67 1.62-3.22 6.76-2.59 7.74 0.83 1.21 2.55-1.31 4.91-3.46 5.86-0.03 4.59 0.17 9.18 0.27 13.77 5.36 0.13 11.06 0.16 15.96 2.63 2.48 1.07 1.8 4.57 4 5.98 5.02 3.56 11.43 4.43 17.43 4.81 12.97-48.64 26.32-97.18 39.41-145.8-14.73-21.13-30.44-41.93-50.05-58.81-11.88-9.92-25.88-18.89-41.77-19.71m-29.09 14.87c-20.31 19.32-36.5 42.4-52.6 65.22 17.12 76.34 34.71 152.57 51.84 228.91 7.74-6.41 15.2-13.14 22.81-19.7-0.01-96.26-0.45-192.51-0.25-288.76-8.39 2.77-15.39 8.43-21.8 14.33m562.76 48.78c-23.54 30.13-36.01 68.94-33.82 107.16 1.5599 23.1 8.87 45.86 21.65 65.22 18.42 28.19 46.61 48.7 76.92 62.59 22.06-8.4 42.88-20.83 59.24-38.01 13.74-14.33 24.08-31.87 30-50.81 12.62-40.29 6.3-85.25-13.75-122.05-9.99-18.11-23.68-34.58-41.21-45.78-14.99-9.52-33.32-14.96-51.07-11.87-19.7 4.28-35.63 18.23-47.96 33.55m-640.03 54.05c-11.93 18.87-23.61 37.91-34.86 57.19 0.62-0.01 1.84-0.04 2.46-0.05 0.38 3.68 4.22 3.17 6.92 2.78-1.6 1.37-3.45 3.13-5.69 3-1.25-2.02-5.93-2.31-4.2 1.04 4.81 6.19 12.01 10.22 19.28 12.91 0.93 2.2 1.83 4.41 2.58 6.69-0.77 0.01-2.3 0.04-3.06 0.06 0.1 4.8 0.08 9.6 0.04 14.41 0.27 0.3 0.82 0.92 1.09 1.22-0.4 5.39-1.2 10.76-1.22 16.17-3.66 2.07-7.7 3.37-11.58 4.97 2.27 9.53 4.57 19.21 4.34 29.08 3.37-11.6 5.2-23.59 8.03-35.34 9.6-44.68 19.18-89.38 28.94-134.03-4.75 6.35-8.69 13.28-13.07 19.9m212.58-17.03c18.42 64.79 37.17 129.49 55.46 194.32 11.44-8.72 22.47-17.97 33.2-27.54-27.61-56.58-55.38-113.25-88.66-166.78m-6.82 4.02c0.42 19.02 0.14 38.05 0.27 57.07 0.13 57.26 0.15 114.52 0.1 171.78 19.49-9.53 38.05-20.89 55.53-33.72-8.23-29.25-16.72-58.42-25-87.66-10.38-35.79-20.34-71.73-30.9-107.47m-7.53 1.56c-4.16 17.23-9.2 34.24-13.68 51.4-6.07 22.19-12.03 44.42-18.09 66.61 1.09-0.1 3.27-0.29 4.36-0.39-1.68 1.65-3.55 3.07-5.45 4.44-6.2 22.96-12.45 45.9-18.64 68.87 15.99 14.57 33.27 27.75 51.81 38.92-0.15-73.46-0.02-146.91-0.07-220.37-0.05-3.16 0.33-6.35-0.24-9.48m-173.75 6.88c-0.73 77.35-0.07 154.72-0.41 232.08 16.12-8.99 31.48-19.39 45.83-31.01-4.86-23.2-10.48-46.27-15.58-69.43-9.95-43.88-20.03-87.73-29.84-131.64m-7.96 2.31c-0.82 6.21-2.35 12.29-3.62 18.42-13.95 64.76-27.94 129.51-41.87 194.28 2.23 1.04 4.5 2 6.84 2.81 0.84 2.17 1.72 4.33 2.53 6.52-0.76 0.11-2.29 0.34-3.05 0.45 0.47 5.5-0.79 11.24 0.96 16.53-0.05 5.17-1.11 10.26-1.23 15.42-5.5 2.39-11.12 4.48-16.64 6.82-2.15 10.84-4.52 21.63-6.97 32.4 6.25 9.46 12.06 19.2 18.4 28.6 1.67-11.75 4.05-23.39 5.52-35.17-4.82 1.28-9.83 1.51-14.78 1.82 7.07-12.1 16.34-24.27 16.48-38.91 12.79-4.6 25.33-9.94 37.41-16.17-0.2599-73.5 0.58-147 0.38-220.5 0.02-4.45 0.3-8.9-0.36-13.32m-196.86 16.94c0.2 5.2-0.05 10.39 0 15.59 12.85-0.08 25.7-0.1 38.55 0.01-0.08-5.1 0.05-10.21-0.13-15.3-0.27-0.42-0.82-1.26-1.09-1.68-1.88 1.7-4.41 2.62-6.31 0.35-1.82 1.66-3.94 1.67-5.77 0.01-1.6 1.51-3.8 1.41-5.34-0.09-1.79 1.59-4.18 1.89-5.92 0.05-1.82 1.68-4.08 1.68-5.95 0.02-1.09 0.73-2.27 1.32-3.49 1.79-0.82-0.7-1.64-1.39-2.45-2.08-0.71 0.44-1.4 0.88-2.1 1.33m-35.26 37.82c16.33 27.92 32.32 56.03 48.62 83.96 1.98-0.76 4.02-1.32 6.13-1.65-0.06-26.42 0.05-52.85-0.06-79.27-6.94-2.68-13.88-5.39-20.7-8.35-0.09-2.32-0.15-4.65-0.19-6.97-11.83 2.25-23.21 6.57-33.8 12.28m75.61-13.27c-0.2 2.68-0.51 5.35-0.59 8.03-5.05 2.31-10.32 4.09-15.36 6.43 0.04 27.03 0.09 54.08 0.01 81.11 2.1 0.34 4.16 0.93 6.19 1.63 16.14-27.98 32.27-55.97 48.48-83.92-12.02-6.64-25.21-11.01-38.73-13.28m-115.21 48.57c-2.31 2.47-1.14 6.04-1.4 9.06 26.78 15.64 53.72 31 80.53 46.59 1.44-1.52 2.93-3 4.47-4.41-16.13-27.99-32.32-55.94-48.43-83.93-13.78 8.36-25.81 19.58-35.17 32.69m110.01 51.22c1.54 1.44 3.05 2.92 4.52 4.44 27.54-16.04 55.15-31.97 82.81-47.8 0.01-0.59 0.01-1.78 0.02-2.38-9.92-15.45-23.31-28.61-38.92-38.26-16.05 28.05-32.34 55.97-48.43 84m104.89-73.33c1.5 0.54 3.14-1.57 2.7-2.99-1.33-0.12-2.68 1.76-2.7 2.99m-256.37 16.8c-0.06 5.2 0.06 10.41-0.07 15.61 12.92-0.09 25.84-0.04 38.77-0.03-0.25-5.02 0.05-10.05-0.14-15.07-0.36-0.43-1.08-1.29-1.44-1.72-1.61 2.05-4.37 2.5-6.08 0.31-1.62 1.68-4.11 1.91-5.71 0.03-1.69 1.64-3.66 1.57-5.38 0.02-1.78 1.54-4.37 1.92-5.97-0.09-1.64 1.91-4.22 1.75-5.89 0.01-1.67 2.1-4.18 2.1-5.8-0.09-0.57 0.26-1.71 0.77-2.29 1.02m240.1 0.61c0.14 5.16 0.0699 10.32 0.08 15.49 12.89-0.08 25.77-0.04 38.66-0.02-0.1-5.06 0.08-10.13-0.04-15.19-0.31-0.36-0.94-1.08-1.25-1.44-2.17 1.21-4.39 2.54-6.28 0.08-1.82 1.64-4.05 1.64-5.88 0.02-1.58 1.73-3.62 1.09-5.42 0.23-1.95 1.08-4.04 1.71-5.69-0.25-1.97 1.81-4.27 1.56-6.15-0.18-1.14 1.16-2.26 2.36-2.97 3.84-1.13-1.11-2-2.42-2.77-3.77-0.77 0.39-1.54 0.78-2.29 1.19m-81.5 64.78c1.4 2.02 2.75 4.1 4.1 6.16 31.45-0.07 62.91-0.05 94.36-0.01-0.3-11.28-2.2-22.46-5.45-33.27-4.19-1.62-8.32-3.38-12.5-5-0.11-4.64-0.5-9.26-0.81-13.88-26.54 15.38-53.12 30.7-79.7 46m602.05-44.69c10.59 31.75 21.13 63.52 31.52 95.34 12.03-9.25 23.38-19.35 34.64-29.5 0.02-11.84 0.05-23.67 0.03-35.5-13.43-7.17-26.73-14.59-40.54-21.02-8.26-3.8-16.71-7.46-25.65-9.32m-719.96-0.07c-0.33 4.08-0.8 8.16-0.93 12.25-4.98 1.99-9.95 4.03-14.94 6-3.39 10.56-4.91 21.62-5.38 32.68 31.48-0.08 62.96-0.07 94.43-0.01 1.34-2.07 2.68-4.14 4.06-6.19-25.77-14.86-51.67-29.53-77.24-44.73m689.6 19.33c-13.35 18.48-23.44 39-33.91 59.17 9.48 6.68 19.22 12.99 29.28 18.77 8.13-32.27 16.46-64.5 24.6-96.77-8.44 4.04-14.48 11.51-19.97 18.83m-311.59-12.61c0.82 15.65 1.09 31.33 2.15 46.97 5.2599 5.83 10.82 11.4 16.54 16.78 5.06-20.07 10.66-40.02 16.16-59.98-5.13 0.66-10.54 1.21-15.57-0.35-2.08-0.33-2.02-2.73-3.25-3.97-5.28-1.34-10.71 0.22-16.03 0.55m336.65 4.24c-7.6 30.04-15.28 60.06-22.94 90.09 9.78 5.6 20.02 10.33 30.15 15.23 7.12-4.33 13.93-9.14 20.68-14.01 0.8099-0.8 2.23-1.21 2.5599-2.39-9.8199-30.1-20.09-60.07-29.68-90.24-0.19 0.33-0.58 0.99-0.77 1.32m78.89 48.12c1.98-1.91 4.2-3.61 5.9199-5.78 0.5801-4.98 0.55-10.03 0.9701-15.03-2.3401-1.19-4.64-2.48-6.9301-3.76 0.1301 8.19 0.0502 16.38 0.0401 24.57m14.31-16.8c-0.1 3.78 0.0701 7.56 0.35 11.33 9.64 10.44 19.75 20.5 30.61 29.68 2.4301-6.9 5.1201-13.7 7.76-20.53-13.02-6.61-26.03-13.25-38.72-20.48m-829.13 13.8c0.42 9.32 1.62 18.6 3.84 27.67 0.63 0.19 1.89 0.56 2.52 0.74 0.31 0.88 0.63 1.76 0.95 2.65 1.83-0.06 3.66-0.18 5.5-0.29-1.25 1.78-3.17 2.72-5.19 3.34l-2.44-1.84c0.91 2.6 1.6 5.34 2.97 7.76 2.76 2.37 5.96 4.19 9.23 5.77 2.12 1.07 4.83 1.47 5.99 3.82 19.01-11.31 38.42-21.99 57.37-33.38 3.66-5.32 7.01-10.87 10.44-16.34-30.39 0.27-60.79 0.08-91.18 0.1m146.6-0.08c2.89 4.92 6.08 9.66 9.1 14.51 1.38 2.73 4.45 3.69 6.88 5.23 17.95 10.39 35.94 20.68 53.86 31.12 1.01 0.51 2.23 1.63 3.36 0.58 2.47-1.45 5.24-2.7 7.17-4.85 6.77-14.54 10.23-30.53 10.67-46.54-30.35 0.05-60.7 0.16-91.04-0.05m-50.45 14.68c-16.38 25.84-32.94 51.57-49.27 77.44 3.41 2.36 6.8 4.74 10.29 6.97 16.55-28.67 33.08-57.35 49.68-85.99-1.18-1.19-2.36-2.37-3.53-3.56-2.48 1.54-5.62 2.48-7.17 5.14m34.63-1.57c16.71 28.6 33.15 57.35 49.76 86.01 3.46-2.34 6.95-4.64 10.35-7.08-16.47-25.75-32.87-51.53-49.28-77.31-1.53-2.65-4.67-3.57-7.08-5.19-1.26 1.18-2.5 2.38-3.75 3.57m750.07-0.21c7.53 15.31 15.23 30.53 22.88 45.78 2.1001 2.27 5.26 3.32 7.8101 5.08 3.67-11.56 7.9299-22.92 11.48-34.51-14.53-4.13-28.51-9.97-42.17-16.35m-769.53 2.92c-16.61 28.61-33.06 57.32-49.69 85.92 5.05 1.56 9.77 3.91 14.36 6.5 6.89 2.76 14.1 4.81 21.44 6.02-0.02-1.84-0.02-3.67 0-5.49-0.71 0.04-2.13 0.14-2.84 0.19 1.07-2.18 2.25-4.31 3.23-6.53 6.75-3.01 13.18-6.83 18.58-11.94-0.09-24.51 0.1-49.02-0.1-73.53-1.68-0.35-3.33-0.73-4.98-1.14m10.2 1.11c-0.4 21.74-0.09 43.49-0.14 65.24 0.42 0.23 1.25 0.69 1.67 0.92 0.89 2.97 4.09 2.41 6.42 1.9-0.28 0.46-0.83 1.36-1.11 1.81-1.41 0.63-2.86 1.15-4.39 1.34-0.64-0.43-1.93-1.29-2.57-1.72-0.06 1.55-0.09 3.09-0.12 4.65 5.03 5.02 11.24 8.77 17.95 11.09 0.92 2.22 1.81 4.47 2.59 6.76-0.74-0.02-2.2-0.04-2.94-0.05 0.04 1.91 0.05 3.82 0.09 5.74 12.93-2.27 25.44-6.69 37.01-12.89-16.49-28.67-33.1-57.28-49.59-85.96-1.62 0.42-3.24 0.83-4.87 1.17m754.66 3.83c0.1699 6.61 0.01 13.23 0.12 19.84 5.11 3.67 10.12 7.49 15.43 10.89-5.1799-10.24-10.13-20.62-15.55-30.73m-853.71 35.48c-0.67 3.4-0.65 7.18 0.01 10.6 4.3 6.37 9.68 11.95 15.09 17.39 12.45-19.39 24.63-38.96 37.27-58.22-17.52 9.96-34.97 20.07-52.37 30.23m140.63-30.15c12.32 19.37 24.71 38.68 36.98 58.07 4.86-4.48 9.15-9.53 13.31-14.65 0-2.97 0-5.94 0.02-8.91-0.74 0.11-2.23 0.33-2.97 0.44 0.92-2 2.01-3.93 3.13-5.84-16.82-9.7-33.64-19.41-50.47-29.11m702.9 6.28c0.91 0.77 1.87 1.56 2.8301 2.31-0.04-3.11 0.0699-6.23 0.0399-9.34-1.07 2.29-1.93 4.68-2.87 7.03m106.43 0.66c0.3199 13.35-0.0701 26.7 0.5599 40.03 0.03 13.57 0.2001 27.14 0.5601 40.69 1.85 4.47 3.7999 8.91 5.1 13.59-1.77 0.01-3.51 0-5.23 0 0.48 9.89 0.36 19.78 0.4399 29.67 17.34-37.07 34.63-74.16 51.97-111.23-14.93-4.38-29.73-9.36-43.88-15.88-3.21 0.97-6.33 2.15-9.52 3.13m-41.29-1.63c4.92 15.91 10.29 31.68 15.24 47.58 0.38 1.07 0.59 2.58 1.9301 2.92 5.24 2.26 10.56 4.33 15.87 6.43 1.36 1.69 0.61 4.22 1.22 6.24 0.8199-7.17-0.1801-14.41-0.08-21.61 0.1799-12.87-0.41-25.73-0.26-38.59-11.35 1.31-22.9-0.15-33.92-2.97m-12.93 36.12c6.6299 3.31 13.2 6.76 19.94 9.86-4.03-11.64-7.61-23.43-11.47-35.13-2.83 8.42-5.78 16.81-8.4699 25.27m115.83-19.6c8.12 19.53 15.87 39.2 23.97 58.74 5.04-3.36 10.83-5.24 16.54-7.12-0.42-14.38-0.1801-28.77-0.3-43.15-13.52-2.22-26.97-4.94-40.21-8.47m-1052 6.04c0.02 5.25 0.02 10.5-0.01 15.75 12.91-0.05 25.81-0.08 38.71 0.02-0.26-5.02-0.16-10.04-0.1-15.05-0.34-0.47-1-1.41-1.33-1.88-1.09 0.69-2.16 1.39-3.24 2.09-1.05-0.58-2.08-1.17-3.1-1.77-1.76 1.81-3.85 1.52-5.69 0.04-1.72 1.37-3.79 1.26-5.55 0.02-1.89 1.5-4.01 1.68-5.78-0.09-1.84 1.83-4.02 1.59-5.87-0.07-1.71 1.98-4.25 2.02-5.91-0.03-0.53 0.25-1.6 0.73-2.13 0.97m1099.6 44.18c7.48-1.1 15.03-1.53 22.59-1.69 5.1399-11.41 9.88-23 14.97-34.43-12.46-1.39-25-2.25-37.33-4.57-0.45 13.55-1e-4 27.13-0.23 40.69m-858.73-38.81c-1.87 1.7-4.34 1.92-6.12-0.11-0.54 0.28-1.62 0.85-2.16 1.13 0.11 5.2-0.06 10.41-0.04 15.62 12.93-0.09 25.86-0.16 38.78 0.04 0.02-5.05 0.17-10.1 0-15.15-0.41-0.45-1.22-1.35-1.63-1.8-1.59 2.09-4.24 2.16-5.89 0.19-1.73 1.78-3.98 1.78-5.8 0.14-1.71 1.3-3.82 1.55-5.43-0.09-1.76 1.74-4.11 1.72-5.9 0.08-1.84 1.74-4.05 1.64-5.81-0.05m904.33 3.35c5.37 11.99 9.5599 24.62 15.09 36.46 5.25 1.09 10.67 1.35 15.96 2.39-0.6-12.35-1.0499-24.72-1.6899-37.07-9.7602-0.95-19.59-0.93-29.36-1.78m82.59 1.41c5.51 13 11.1 25.97 16.69 38.94 6.7001-4.92 13.67-9.67 19.12-16.03 2.5701-3.08 5.3501-6.8 4.63-11.07-0.97-3.36-4.33-5.12-7.24-6.51-10.35-4.71-22-5.4-33.2-5.33m-45.68 0.29c0.4301 12.83 1.17 25.64 1.75 38.46 6.3201 0.95 12.57 2.25 18.85 3.49 5.5701-13.89 10.97-27.86 16.54-41.75-12.38-0.1-24.77 0.25-37.14-0.2m-184.92 98.74c15.49-0.04 30.98-0.07 46.47 0.02-0.05-33.12 0.09-66.24-0.0701-99.35-15.37 33.16-30.81 66.28-46.4 99.33m54.21 0.02c2.71-0.07 5.4299-0.07 8.16-0.03-2.77-9.13-4.51-18.81-3.0701-28.34 1.23-9.22 6.12-17.74 13.2-23.74-6.13-14.92-12.3-29.82-18.15-44.84-0.3399 32.3-0.07 64.63-0.14 96.95m158.86-55.35c6.35 1.36 12.74 2.55 19.07 4.04 3.2101-1.19 6.03-3.44 9.0801-5.08-4.9301-11.19-9.7001-22.46-14.48-33.72-4.52 11.6-9.16 23.16-13.67 34.76m-79.98-11.1c2.36 0.09 4.74 0.15 7.12 0.32-0.05-5.52 0.0599-11.03-0.0701-16.54-2.4099 5.38-4.5599 10.88-7.0499 16.22m14.68-14.63c-0.1 5.17 0.0801 10.35-0.0399 15.52 2.23 0.2 4.47 0.38 6.73 0.57-2.53-5.24-4.16-10.86-6.6901-16.09m-917.99 15.99c1.74 2.78 3.4 5.62 5.46 8.19-0.2599-4.39-0.23-8.79-0.09-13.18-1.9 1.54-3.65 3.26-5.37 4.99m12.81 18.02c-0.37 2.85 1.96 4.93 3.29 7.19 1.75-7.79 3.17-15.65 5.18-23.39-2.77-1.26-5.58-2.44-8.41-3.57 0.01 6.59-0.01 13.18-0.06 19.77m-82.4 14.89c-0.37 3.36-0.74 6.72-0.9 10.1-6.05 2.54-12.17 4.88-18.21 7.44-1.63 0.86-3.46 0.37-5.01-0.37-5.64-2.46-11.51-4.45-17.1-7.01-1.2-3.14-0.52-6.96-0.95-10.35-1.35-0.28-2.7-0.58-4.02-0.85 1.68 6.6 2.08 13.48 1.11 20.22 44.53-0.01 89.06-0.05 133.59 0.02-9.43-14.84-18.92-29.64-28.34-44.49-17.56 13.22-38.45 21.94-60.17 25.29m-40.57-22.58c0.1 5.17-0.09 10.34-0.04 15.51 12.92 0.04 25.84 0.04 38.77 0-0.11-5.16 0.04-10.34-0.27-15.49-0.37-0.34-1.12-1.03-1.49-1.37-1.69 2.16-4.4 2.39-5.99 0.04-0.83 0.69-1.65 1.39-2.46 2.09-1.13-0.64-2.25-1.29-3.35-1.95-0.86 0.57-1.73 1.14-2.58 1.73-0.88-0.59-1.76-1.18-2.63-1.77-1.1 0.68-2.21 1.35-3.31 2.02-0.86-0.68-1.7-1.33-2.54-1.99-1.8 1.86-4.18 2.01-5.95 0.02-1.77 2.01-4.39 2.06-6.07-0.1-0.7 0.41-1.4 0.84-2.09 1.26m1123.8 4.86c-1.73 2.75 3.38 0.37 0 0m-156.98 8.95c-5.9399 3.93-9.75 10.69-10.43 17.74-0.9601 8.08 1.13 16.09 3.62 23.71 3.5699 10.67 9.95 20.25 12.17 31.4 14.38 40 29.22 79.86 43.54 119.9 7.63-10.57 22.16-11.46 34.03-10.43 13.75 0.97 27.17 4.4 40.41 8.04 41.19 12.06 80.88 28.54 120.88 43.95 42.36 16.35 84.81 32.96 128.99 43.76 22.83 5.07 46.7 9.64 69.99 4.95-21.45-11.54-41.59-25.62-59.11-42.59-27.38-26.23-49.05-57.58-70.61-88.58 19.17-5.09 37.33-13.61 53.91-24.46 29.84-19.45 54.65-45.68 75.65-74.26-20.7 4.99-42.22 4.27-63.28 2.57-45.65-4.48-90.46-14.77-135.07-25.13-47.84-11.18-95.44-23.54-143.77-32.43-24.48-4.14-49.3-8-74.2-6.27-9.26 1.1-18.89 2.7-26.72 8.13m-1096.5-1.13c-46 8.25-91.32 19.75-136.79 30.46-46.58 10.79-93.28 21.82-140.91 26.85-22.4 1.94-45.42 3.24-67.44-2.3 10.42 14.45 22.74 27.5 36.27 39.07 28.18 24.19 61.74 40.58 93.27 59.77-2.32 3.83-4.35 7.81-6.63 11.67-18.28 31.9-41.27 61.48-69.98 84.67-16.43 13.5-34.57 24.75-53.25 34.85 20.47 4.02 41.5 0.97 61.7-3.16 40.16-8.88 78.76-23.43 117.11-38.08 43.45-16.63 86.35-34.84 130.71-49 20.49-6.04 41.52-12.5 63.13-11.17 8.35 0.44 16.75 3.94 21.67 10.95 0.47-1.66 0.96-3.29 1.54-4.9 15.47-42.41 30.65-84.93 46.2-127.32 5.34-11.66 11.27-23.53 12.07-36.56 0.67-8.05-2.01-16.64-8.37-21.88-8.52-7.15-20.02-8.88-30.74-9.83-23.34-1.3-46.6 2.06-69.56 5.91m101.79 86.81c-22.48 64.29-44.9 128.6-67.33 192.9-4.33 14.12 0.27 29.64 9.07 41.08 11.5 15.11 27.96 25.45 44.57 34.15 33.73 16.99 70.29 27.43 106.9 36.15 36.01 8.3101 72.48 14.5 109.11 19.41 83.92 11.17 168.59 15.94 253.18 17.27 82.41 0.91 164.86-1.81 246.95-9.2 48.92-4.51 97.72-10.66 146.03-19.7 39.48-7.54 78.77-16.78 116.57-30.6 21.14-7.92 42.01-17.2 60.5-30.3 11.12-8.06 21.57-17.72 27.94-30.06 5.8101-11 7.1801-24.34 3.34-36.21-13.54-41.49-26.28-83.29-42.15-123.97-7-18.42-14.88-36.49-22.46-54.67-1.49 11.71-7.7999 22.27-16.06 30.49-10.97 10.92-24.49 18.85-38.37 25.46-22.71 10.68-46.84 17.88-71.12 23.96-44.36 10.68-89.64 17.1-135.01 21.54-47.92 4.81-96.06 6.98-144.18 8.03-23.66 0.57-47.34 0.16-71.01 0.25-28.02-0.73-56.03-1.44-84.03-2.8-75.04-3.88-150.01-10.88-224.1-23.57-44.55-7.92-89.04-17.46-131.63-32.97-19.21-7.24-38.31-15.57-54.83-27.94-9.61-7.34-18.79-16.65-21.88-28.7z"/>
	<path d="m490.51 157.63c0.7-0.45 1.39-0.89 2.1-1.33 0.81 0.69 1.63 1.38 2.45 2.08 1.22-0.47 2.4-1.06 3.49-1.79 1.87 1.66 4.13 1.66 5.95-0.02 1.74 1.84 4.13 1.54 5.92-0.05 1.54 1.5 3.74 1.6 5.34 0.09 1.83 1.66 3.95 1.65 5.77-0.01 1.9 2.27 4.43 1.35 6.31-0.35 0.27 0.42 0.8199 1.26 1.09 1.68 0.18 5.09 0.05 10.2 0.13 15.3-12.85-0.11-25.7-0.09-38.55-0.01-0.05-5.2 0.2-10.39 0-15.59z" fill="#fff"/>
	<path d="m374.18 225.44c0.58-0.25 1.72-0.76 2.29-1.02 1.62 2.19 4.13 2.19 5.8 0.09 1.67 1.74 4.25 1.9 5.89-0.01 1.6 2.01 4.19 1.63 5.97 0.09 1.72 1.55 3.69 1.62 5.38-0.02 1.6 1.88 4.09 1.65 5.71-0.03 1.71 2.19 4.47 1.74 6.08-0.31 0.36 0.43 1.08 1.29 1.44 1.72 0.19 5.02-0.11 10.05 0.14 15.07-12.93-0.01-25.85-0.06-38.77 0.03 0.13-5.2 0.01-10.41 0.07-15.61z" fill="#fff"/>
	<path d="m614.28 226.05c0.75-0.41 1.52-0.8 2.29-1.19 0.77 1.35 1.64 2.66 2.77 3.77 0.71-1.48 1.83-2.68 2.97-3.84 1.88 1.74 4.18 1.99 6.15 0.18 1.65 1.96 3.74 1.33 5.69 0.25 1.8 0.86 3.84 1.5 5.42-0.23 1.83 1.62 4.06 1.62 5.88-0.02 1.89 2.46 4.11 1.13 6.28-0.08 0.31 0.36 0.94 1.08 1.25 1.44 0.12 5.06-0.06 10.13 0.04 15.19-12.89-0.02-25.77-0.06-38.66 0.02-0.01-5.17 0.06-10.33-0.08-15.49z" fill="#fff"/>
	<path d="m375.66 356.03c0.53-0.24 1.6-0.72 2.13-0.97 1.66 2.05 4.2 2.01 5.91 0.03 1.85 1.66 4.03 1.9 5.87 0.07 1.77 1.77 3.89 1.59 5.78 0.09 1.76 1.24 3.83 1.35 5.55-0.02 1.84 1.48 3.93 1.77 5.69-0.04 1.02 0.6 2.05 1.19 3.1 1.77 1.08-0.7 2.15-1.4 3.24-2.09 0.33 0.47 0.99 1.41 1.33 1.88-0.06 5.01-0.16 10.03 0.1 15.05-12.9-0.1-25.8-0.07-38.71-0.02 0.03-5.25 0.03-10.5 0.01-15.75z" fill="#fff"/>
	<path d="m616.48 361.4c1.76 1.69 3.97 1.79 5.81 0.05 1.79 1.64 4.14 1.66 5.9-0.08 1.61 1.64 3.72 1.39 5.43 0.09 1.82 1.64 4.07 1.64 5.8-0.14 1.65 1.97 4.3 1.9 5.89-0.19 0.41 0.45 1.22 1.35 1.63 1.8 0.17 5.05 0.02 10.1 0 15.15-12.92-0.2-25.85-0.13-38.78-0.04-0.02-5.21 0.15-10.42 0.04-15.62 0.54-0.28 1.62-0.85 2.16-1.13 1.78 2.03 4.25 1.81 6.12 0.11z" fill="#fff"/>
	<path d="m492.42 410.45c0.69-0.42 1.39-0.85 2.09-1.26 1.68 2.16 4.3 2.11 6.07 0.1 1.77 1.99 4.15 1.84 5.95-0.02 0.84 0.66 1.68 1.31 2.54 1.99 1.1-0.67 2.21-1.34 3.31-2.02 0.87 0.59 1.75 1.18 2.63 1.77 0.85-0.59 1.72-1.16 2.58-1.73 1.1 0.66 2.22 1.31 3.35 1.95 0.81-0.7 1.63-1.4 2.46-2.09 1.59 2.35 4.3 2.12 5.99-0.04 0.37 0.34 1.12 1.03 1.49 1.37 0.31 5.15 0.16 10.33 0.27 15.49-12.93 0.04-25.85 0.04-38.77 0-0.05-5.17 0.14-10.34 0.04-15.51z" fill="#fff"/>
	<path d="m1459.2 424.26c7.8301-5.43 17.46-7.03 26.72-8.13 24.9-1.73 49.72 2.13 74.2 6.27 48.33 8.89 95.93 21.25 143.77 32.43 44.61 10.36 89.42 20.65 135.07 25.13 21.06 1.7 42.58 2.42 63.28-2.57-21 28.58-45.81 54.81-75.65 74.26-16.58 10.85-34.74 19.37-53.91 24.46 21.56 31 43.23 62.35 70.61 88.58 17.52 16.97 37.66 31.05 59.11 42.59-23.29 4.6899-47.16 0.12-69.99-4.95-44.18-10.8-86.63-27.41-128.99-43.76-40-15.41-79.69-31.89-120.88-43.95-13.24-3.64-26.66-7.07-40.41-8.04-11.87-1.03-26.4-0.14-34.03 10.43-14.32-40.04-29.16-79.9-43.54-119.9-2.22-11.15-8.6-20.73-12.17-31.4-2.49-7.62-4.5801-15.63-3.62-23.71 0.6798-7.05 4.4898-13.81 10.43-17.74z" fill="#fff"/>
	<path d="m362.72 423.13c22.96-3.85 46.22-7.21 69.56-5.91 10.72 0.95 22.22 2.68 30.74 9.83 6.36 5.24 9.04 13.83 8.37 21.88-0.8 13.03-6.73 24.9-12.07 36.56-15.55 42.39-30.73 84.91-46.2 127.32-0.58 1.61-1.07 3.24-1.54 4.9-4.92-7.01-13.32-10.51-21.67-10.95-21.61-1.33-42.64 5.13-63.13 11.17-44.36 14.16-87.26 32.37-130.71 49-38.35 14.65-76.95 29.2-117.11 38.08-20.2 4.13-41.23 7.18-61.7 3.16 18.68-10.1 36.82-21.35 53.25-34.85 28.71-23.19 51.7-52.77 69.98-84.67 2.28-3.86 4.31-7.84 6.63-11.67-31.53-19.19-65.09-35.58-93.27-59.77-13.53-11.57-25.85-24.62-36.27-39.07 22.02 5.54 45.04 4.24 67.44 2.3 47.63-5.03 94.33-16.06 140.91-26.85 45.47-10.71 90.79-22.21 136.79-30.46z" fill="#fff"/>
	<path d="m464.51 509.94c3.09 12.05 12.27 21.36 21.88 28.7 16.52 12.37 35.62 20.7 54.83 27.94 42.59 15.51 87.08 25.05 131.63 32.97 74.09 12.69 149.06 19.69 224.1 23.57 28 1.36 56.01 2.07 84.03 2.8 23.67-0.09 47.35 0.32 71.01-0.25 48.12-1.05 96.26-3.22 144.18-8.03 45.37-4.44 90.65-10.86 135.01-21.54 24.28-6.08 48.41-13.28 71.12-23.96 13.88-6.61 27.4-14.54 38.37-25.46 8.26-8.22 14.57-18.78 16.06-30.49 7.5801 18.18 15.46 36.25 22.46 54.67 15.87 40.68 28.61 82.48 42.15 123.97 3.8401 11.87 2.4701 25.21-3.34 36.21-6.37 12.34-16.82 22-27.94 30.06-18.49 13.1-39.36 22.38-60.5 30.3-37.8 13.82-77.09 23.06-116.57 30.6-48.31 9.04-97.11 15.19-146.03 19.7-82.09 7.39-164.54 10.11-246.95 9.2-84.59-1.33-169.26-6.1-253.18-17.27-36.63-4.91-73.1-11.1-109.11-19.41-36.61-8.72-73.17-19.16-106.9-36.15-16.61-8.7-33.07-19.04-44.57-34.15-8.8-11.44-13.4-26.96-9.07-41.08 22.43-64.3 44.85-128.61 67.33-192.9z" fill="#fff"/>
</svg>
