<?xml version="1.0" encoding="UTF-8"?>
<svg enable-background="new 0 0 123.516 123.508" viewBox="0 0 123.516 123.508" xmlns="http://www.w3.org/2000/svg">
 <path d="m109.07 123.35c8.156 0 14.773-6.586 14.773-14.742v-94.024c0-8.156-6.617-14.758-14.773-14.758h-94.016c-8.156 0-14.773 6.602-14.773 14.758v94.023c0 8.156 6.617 14.742 14.773 14.742h94.016z" fill="#231f20"/>
 <path d="m15.055 2.324c-6.773 0-12.273 5.5-12.273 12.258v94.023c0 6.758 5.5 12.258 12.273 12.258h94.016c6.766 0 12.266-5.5 12.266-12.258v-94.023c0-6.758-5.5-12.258-12.266-12.258h-94.016z"/>
 <path d="m29.703 101.33c9.898 0 17.93-8.031 17.93-17.945 0-9.891-8.031-17.922-17.93-17.922-9.875 0-17.906 8.031-17.906 17.922 0 9.914 8.031 17.945 17.906 17.945zm-21.984-17.945c0-12.148 9.859-21.984 21.984-21.984 12.156 0 22.008 9.836 22.008 21.984 0 12.156-9.852 21.992-22.008 21.992-12.125 0-21.984-9.836-21.984-21.992z" fill="#fff"/>
 <path d="m94.446,101.535c9.875,0 17.906-8.016 17.906-17.93 0-9.898-8.031-17.93-17.906-17.93-9.898,0-17.93,8.031-17.93,17.93 0,9.915 8.031,17.93 17.93,17.93zm-22.008-17.93c0-12.156 9.867-21.984 22.008-21.984 12.125,0 21.984,9.828 21.984,21.984s-9.859,21.992-21.984,21.992c-12.141.001-22.008-9.835-22.008-21.992z" fill="#fff"/>
 <path d="m72.5 29.941c4.562 0 8.273-3.688 8.273-8.25s-3.71-8.281-8.273-8.281-8.281 3.719-8.281 8.281 3.719 8.25 8.281 8.25z" fill="#fff"/>
 <path d="m72.844,50.012c-1.203.023-2.492-.578-3.445-2.078l-5.367-8.398-11.086,10.976 10.273,5.406c4.227,2.023 3.594,5.742 3.594,5.742v23.266c0,2.633-2.125,4.781-4.766,4.781-2.633,0-4.758-2.148-4.758-4.781v-18.633l-17.82-9.898c-2.125-1.188-3.562-3.453-3.562-6.039 0-1.789.656-3.422 1.781-4.641l17.477-17.516c2.172-2.453 5.203-2.062 5.203-2.062 3.664,0 5.586,3.195 5.586,3.195l9.086,14.234 13.789-.023c4.961,0 4.961,6.469 0,6.469h-15.985z" fill="#fff"/>
</svg>
