<?xml version="1.0" encoding="UTF-8"?>
<svg viewBox="0 0 157.58 258.42" xmlns="http://www.w3.org/2000/svg">
 <rect x="-.2096" y="-.42099" width="161" height="260" stroke-width="null"/>
 <g fill="#fff">
  <path d="m72.472 124.81c-10.97 3.8879-20.656 6.367-34.571 10.792 5.4558 69.547 69.327 41.82 34.571-10.792zm-3.1642-12.619c0.18684-9.6633-0.31101-18.977 3.781-28.164 4.6484-9.8507 5.3912-18.491 2.8197-32.796-4.6773-26.019-14.565-42.241-27.918-45.803-28.482-4.2447-32.01 24.309-32.701 45.196-1.5723 11.689 8.1067 61.712 19.811 70.185 11.502-3.0035 22.796-5.9504 34.206-8.6174z"/>
  <path d="m93.548 186.6c10.97 3.8879 20.656 6.367 34.571 10.792-5.4558 69.547-69.327 41.82-34.571-10.792zm3.1642-12.619c-0.18684-9.6633 0.31101-18.977-3.781-28.164-4.6484-9.8507-5.3912-18.491-2.8197-32.796 4.6773-26.019 14.565-42.241 27.918-45.803 28.482-4.2447 32.01 24.309 32.701 45.196 1.5723 11.689-8.1067 61.712-19.811 70.185-11.502-3.0035-22.796-5.9504-34.206-8.6174z"/>
 </g>
</svg>
