<?xml version='1.0' encoding='utf-8'?>
<svg xmlns="http://www.w3.org/2000/svg" width="100%" height="100%" viewBox="0 0 1920 1080" version="1.1" style="fill-rule:evenodd;clip-rule:evenodd;stroke-linejoin:round;stroke-miterlimit:1.41421;"><rect id="Artboard1" x="0" y="0" width="1920" height="1080" style="fill:none;"/><clipPath id="_clip1"><rect id="Artboard11" x="0" y="0" width="1920" height="1080"/></clipPath><g clip-path="url(#_clip1)"><g><path id="Drip" d="M960,297.5c0,0 -232.5,385 -232.5,550c0,128.32 104.18,232.5 232.5,232.5c128.32,0 232.5,-104.18 232.5,-232.5c0,-165 -232.5,-550 -232.5,-550Z" style="fill:#1a7ae6;"/><path id="Ref" d="M845.623,574.534c-22.923,52.445 -88.428,168.576 -88.428,279.249c0,42.463 34.475,76.938 76.938,76.938c42.463,0 76.937,-34.475 76.937,-76.938c0,-110.673 -76.403,-206.859 -65.447,-279.249Z" style="fill:#fff;"/></g><g><path id="Drip1" d="M547,76.25c0,0 -180.5,302.4 -180.5,432c0,99.621 80.879,180.5 180.5,180.5c99.621,0 180.5,-80.879 180.5,-180.5c0,-129.6 -180.5,-432 -180.5,-432Z" style="fill:#1a7ae6;"/><path id="Ref1" d="M458.204,293.098c-17.796,41.307 -68.65,132.249 -68.65,219.074c0,32.966 26.764,59.73 59.73,59.73c32.966,0 59.73,-26.764 59.73,-59.73c0,-86.825 -59.316,-162.284 -50.81,-219.074Z" style="fill:#fff;"/></g><g><path id="Drip2" d="M1266.8,41.25c0,0 -115.299,193.166 -115.299,275.951c0,63.635 51.664,115.299 115.299,115.299c63.635,0 115.299,-51.664 115.299,-115.299c0,-82.785 -115.299,-275.951 -115.299,-275.951Z" style="fill:#1a7ae6;"/><path id="Ref2" d="M1210.08,179.767c-11.367,26.386 -43.852,84.478 -43.852,139.939c0,21.058 17.096,38.154 38.154,38.154c21.058,0 38.154,-17.096 38.154,-38.154c0,-55.461 -37.889,-103.663 -32.456,-139.939Z" style="fill:#fff;"/></g></g></svg>