<?xml version="1.0" encoding="UTF-8"?>
<svg viewBox="0 0 313.622 471.664" xmlns="http://www.w3.org/2000/svg">
 <path d="m157.09 39.375-74.094 0.0625c-34.507 0-59.906 27.714-59.906 57.906v213.84c0 29.25 22.894 53.261 45.906 56.969l-69 103.5h39.812l49.375-72.344h135.25l49.375 72.344h39.812l-69-103.5c23.012-3.708 45.906-27.719 45.906-56.969v-213.84c1e-5 -30.192-25.399-57.906-59.906-57.906l-73.531-0.0625zm-29.344 12.406h58.125c5.25 0 9.8125 4.4062 9.8125 9.6562v17c0 5.25-4.3125 9.75-9.8125 9.75h-58.125c-5.5 0-9.8125-4.5-9.8125-9.75v-17c0-5.25 4.5625-9.6562 9.8125-9.6562zm-42.75 47.938h143.62c19.5 0 29.844 13.969 29.844 29.969v38.5c0.152 18.5-13.344 29.812-29.844 29.812h-143.62c-16.5 0-29.996-11.312-29.844-29.812v-38.5c0-16 10.344-29.969 29.844-29.969zm-3.25 184.72c14.505 1e-5 26.25 11.745 26.25 26.25s-11.745 26.25-26.25 26.25-26.25-11.746-26.25-26.25 11.745-26.25 26.25-26.25zm149.5 0c14.505 0 26.281 11.745 26.281 26.25s-11.776 26.25-26.281 26.25-26.25-11.746-26.25-26.25 11.745-26.25 26.25-26.25z"/>
 <path d="m134.77 33.184c-9.165 0-16.591-7.428-16.591-16.593s7.426-16.591 16.591-16.591 16.591 7.428 16.591 16.591-7.428 16.593-16.591 16.593z"/>
 <path d="m178.85 33.184c9.165 0 16.591-7.428 16.591-16.593s-7.426-16.591-16.591-16.591-16.591 7.428-16.591 16.591 7.428 16.593 16.591 16.593z"/>
</svg>
