<?xml version="1.0" encoding="UTF-8"?>
<!DOCTYPE svg  PUBLIC '-//W3C//DTD SVG 1.1//EN'  'http://www.w3.org/Graphics/SVG/1.1/DTD/svg11.dtd' [
	<!ENTITY ns_extend "http://ns.adobe.com/Extensibility/1.0/">
	<!ENTITY ns_ai "http://ns.adobe.com/AdobeIllustrator/10.0/">
	<!ENTITY ns_graphs "http://ns.adobe.com/Graphs/1.0/">
	<!ENTITY ns_vars "http://ns.adobe.com/Variables/1.0/">
	<!ENTITY ns_imrep "http://ns.adobe.com/ImageReplacement/1.0/">
	<!ENTITY ns_sfw "http://ns.adobe.com/SaveForWeb/1.0/">
	<!ENTITY ns_custom "http://ns.adobe.com/GenericCustomNamespace/1.0/">
	<!ENTITY ns_adobe_xpath "http://ns.adobe.com/XPath/1.0/">
]>
<svg width="385.93px" height="311.85px" enable-background="new 0 0 385.926 311.852" version="1.1" viewBox="0 0 385.926 311.852" xml:space="preserve" xmlns="http://www.w3.org/2000/svg">
	<path d="m227.1 277.04c33.463 0 60.643-27.13 60.643-60.592v-40.654c0-5.557-4.251-7.188-7.948-3.12-2.19 2.408-51.604 52.159-76.312 79.108v-58.834c0-1.463 0.619-2.598 2.376-2.598 25.361 0 48.282-27.311 48.282-53.549 0-19.41-4.087-41.522-13.094-59.535-1.17-2.341-1.341-3.651-4.633-3.651-1.536 0-3.006 0.691-3.72 1.928-2.345 4.062-14.995 33.96-15.801 35.403-0.986 1.763-3.107 1.943-4.095 0-0.75-1.473-13.458-31.341-15.802-35.403-0.716-1.237-2.185-1.928-3.72-1.928-1.537 0-3.007 0.691-3.719 1.928-2.346 4.062-15.054 33.93-15.802 35.403-0.989 1.943-3.108 1.763-4.095 0-0.808-1.443-13.458-31.341-15.803-35.403-0.714-1.237-2.184-1.928-3.72-1.928-3.292 0-3.461 1.31-4.633 3.651-9.006 18.012-13.094 40.125-13.094 59.535 0 26.239 22.923 53.549 48.282 53.549 1.755 0 2.378 1.135 2.378 2.598v84.104l44.02-0.03z"/>
	<path d="m98.18 175.8c0 5.266 0.101 30.977 0.101 40.654 0 33.462 27.129 60.592 60.592 60.592h8.95v-40.967s-58.721-60.181-61.646-63.399c-3.69-4.06-7.99-2.43-7.99 3.13z"/>
</svg>
