<?xml version="1.0" encoding="UTF-8"?>
<svg version="1.1" viewBox="0 0 563.65 1216.2" xmlns="http://www.w3.org/2000/svg">
 <g transform="translate(-246.74 -1.421)">
  <g transform="translate(15720 -2997.8)">
   <path d="m-15030 3287.2c-2.477 0.4882-4.336 2.4276-7.15 2.8016-1.715 0.2227-3.504-0.6276-5.216-0.3864-2.56 0.3555-3.607 2.4753-5.604 3.3815-6.659-2.7763-9.631 3.6681-14.782 4.4438-3.71 6.4862-1.273 14.95 0.1 22.704 0.483 2.702 0.464 5.5145 1.45 8.0189 0.695 1.7279 2.433 3.7306 3.574 5.7 1.889 3.2244 3.158 5.878 5.121 7.8256-0.745 14.076 0.402 26.575 1.545 39.031 1.259 13.686 4.484 26.522 4.735 40.191 0.167 8.8759 0.02 19.246 1.545 28.693-2.488-0.5719-3.862-0.4931-6.376-0.9661-17.263 2.3682-29.484 9.4006-39.708 17.68-0.655-0.7637-1.591-1.432-2.608-1.6423-0.857-0.1855-3.561-0.5358-4.927-0.4829-7.361 0.278-16.781 2.2127-22.028 5.3135-1.307-4.5538-8.998-3.849-11.786-0.7729 0.17-2.4238-1.583-2.4954-2.995-3.5747-1.28-0.986-1.614-1.8619-2.319-2.0288-3.153-0.7264-4.67 1.3943-7.149 2.3187-0.121-0.4049-0.333-1.9378-0.966-2.6086 4.077-9.1384 6.942-20.262 10.627-29.37 1.184 0.3092 2.028 1.0072 3.478 1.0628 0.971-0.7326 2.995-1.1942 4.154-2.415 2.121-2.2201 5.817-11.707 5.604-14.879-0.244-3.4281-2.742-5.5106-4.541-7.9218 1.199-2.7858 1.617-6.3339 2.319-9.5647-0.03-0.7759-0.894-0.6576-1.256-1.0629 0.726-3.4499 0.206-7.2193-0.87-10.917-3.626-12.4-16.527-24.06-26.278-28.79-1.41-0.6801-4.335-1.9338-5.507-2.1255-2.022-0.3276-6.363 0.6981-8.598 1.4494-3.994 1.3384-8.622 3.9671-12.657 6.666-4.859 3.2369-9.505 7.9184-12.269 12.463-4.588 7.528-4.739 16.557-6.473 24.926-3.246 0.3058-4.577 3.3581-5.217 6.2797-1.289 5.9172-1.007 13.02 0.869 17.197 1.061 0.4514 2.052 0.9683 2.899 1.6426-0.913 5.1194 0.619 12-0.29 18.356-0.149 1.048-0.89 1.913-1.063 2.9951-0.912 5.302 0.173 10.514-4.734 12.753-4.888-0.745-7.487 5.2504-9.565 8.9847-1.094-2.8411-4.399-4.6796-8.115-3.7677-1.203-2.6834-4.497-3.175-6.473-5.0237-1.054 0-2.325 0.7939-3.091 1.8355-12.908-3.3974-30.363-5.9804-46.374-2.5117-12.038-10.277-27.686-13.359-44.248-15.071-3.487-0.3465-6.42-1.2784-8.695-3.6715 0.485-4.5814 2.364-9.6463 2.995-14.781 0.603-4.9929 0.283-10.844 0.58-16.134 0.574-10.084 1.566-19.251 4.927-27.438 2.594-6.3192 4.635-11.882 6.28-19.515 0.615-2.8658 1.625-5.1205 2.608-7.8257 2.177-6.0502 4.887-12.667 8.019-17.487 3.258-5.0018 6.357-9.5758 6.376-17.196 0.315 0.2778 0.625 0.3802 0.87 0.3863 0.232-0.4733 0.442-0.8748 0.772-1.1592-0.123 0-0.149 0.021-0.193-0.097 2.628-6.9777 9.471-17.093 4.058-25.506-2.155-0.1177-3.218-2.5639-5.797-1.2562-2.328-3.9139-9.496-1.4159-12.946-1.5458-3.141-4.47-10.417-5.6087-14.491-1.2557-0.384-0.053-0.636-0.2096-0.966-0.2899-0.634-0.1733-1.242-0.3046-2.126-0.193-7.077 7.0484-0.767 19.695-3.478 28.887 1.119 3.8336 1.034 8.4208 0.193 12.27 0.631 0.6156 1.177 1.3201 1.449 2.3187-3.589 13.148-9.103 26.398-16.037 37.292-5.206 13.133-13.234 23.71-19.612 35.746-1.054 6.9718-4.426 11.808-5.99 18.26-0.671 2.7454-0.716 6.309-1.739 9.5644-0.94 2.9713-2.802 6.0356-3.961 9.3715-1.351 3.8769-3.355 9.2685-3.961 12.753-0.745 4.186 1.905 7.164 3.188 10.531 1.632 4.2536 5.88 5.8003 10.048 8.5982 3.412 2.2878 6.589 4.7055 9.467 6.5696 6.922 4.4828 14.113 7.9231 20.772 11.111 7.179 3.4189 14.945 6.1459 22.124 9.6611 3.682 1.7927 6.985 3.9352 10.531 5.4103 8.804 3.6541 19.91 4.172 28.693 7.1489 2.971 4.4426 7.341 7.497 11.014 11.207-0.661 7.9055 3.83 13.428 6.087 19.902 0.123 0.3583-0.324 1.0069-0.194 1.449 0.106 0.4142 0.79 0.4545 0.87 0.7729 1.811 6.6746 1.059 12.618 0.966 20.675-0.04 2.7175 0.686 5.8245 0.773 8.8883 0.408 13.931 3.026 29.824 1.449 43.958 1.963 16.781-0.207 33.95-2.319 52.75-1.082 9.6209-1.001 19.797-2.608 28.791-0.792 4.4085-3.031 9.6494-0.483 12.076 0.318 0.2905 3.497 1.691 4.734 1.9322 1.431 0.2751 3.249-0.8585 4.25 0.097-0.89 4.5726-1.705 8.6764-2.994 13.333-1.299 4.659-1.723 9.0852-2.416 14.202-1.329 9.9456-3.131 19.866-3.091 30.046 0.02 5.8681 0.909 11.819 0.869 17.776-0.06 7.7598-0.171 15.201-0.966 22.8-0.293 2.8599-0.768 5.6987-1.256 8.5986-0.936 5.3823-0.607 11.299-0.869 17.293-0.26 6.1063-0.796 12.227-0.87 18.163-0.223 16.33-0.851 30.594 2.222 43.668 0.133 0.5627 0.251 1.1046 0.387 1.6426-0.223 1.082 0.06 1.3396-0.194 2.0289 2.709 7.9729 6.856 14.29 7.923 23.283-2.155 7.0798-0.33 14.342 2.125 20.965-1.008 3.679 2.386 7.2955 3.768 11.11 1.923 5.2866 2.741 12.655 2.608 19.129-0.126 5.265-0.732 10.216-0.386 15.264 0.717 10.314 6.124 18.513 8.405 27.921-1.203 1.419-0.603 3.0585-0.483 4.3476-0.494 1.1037-1.557 1.5845-1.835 2.8983 1.412 3.2369 1.703 7.6586 3.478 10.531-2.69 2.1888-3.544 5.4088-4.251 8.6954-0.532 2.5258-0.951 5.1289-2.126 7.3425-0.813 1.5396-2.223 2.7041-3.091 4.154-4.851 8.1248-4.941 18.469-11.207 25.892-2.545 8.2978-8.644 16.713-6.956 25.892 0.615 3.3637 3.085 6.3547 5.41 7.5357 6.427 3.2307 16.372 2.9952 24.249 2.9952 8.014-4.1833 15.246-7.7083 19.033-15.555 1.843-3.8242 2.735-8.3095 4.831-12.27 2.414-4.5786 7.983-7.6711 11.69-11.304 3.103-3.0268 5.041-6.7808 9.178-9.7581 0.5-1.3012 0.776-2.8185 1.642-3.7676-0.652-3.8336 0.422-7.5991 0.193-11.207-0.191-3.0018-0.435-5.0221 0.1-7.5355 0.321-1.5582 0.676-3.0072 1.063-4.5409l-2.126-0.5795 2.126 0.483c2.083-8.069 4.929-15.572 6.666-23.187-0.504-0.368-0.861-0.9569-0.966-1.739 1.128-16.2 0.267-34.33-0.966-49.658-0.68-8.409-0.03-16.891-0.773-25.022-0.359-3.7312-1.409-7.2189-2.126-10.821-0.639-3.2029-0.09-6.3089-0.289-9.5643-0.291-4.6714-1.512-9.5963-1.933-14.299-0.433-4.9959-0.637-9.8281-1.256-14.298-0.392-2.8041-1.368-5.8137-1.449-8.3086h-0.1c-0.04-1.0728 0.15-2.0637 0.58-2.8983-2.798-15.532 1.796-31.901 4.251-46.663 2.677-3.4999 3.414-9.8003 3.285-15.072 2.983-4.2879 0.458-9.676 2.415-14.202 1.518-3.543 4.556-5.9451 5.7-9.6612 1.06-3.4254 0.668-6.1745 3.478-7.8253 3.58 7.2095 7.054 13.79 10.241 21.158 1.147 2.6526 1.673 5.4335 2.802 8.3086 1.27 3.1813 3.6 5.9235 4.927 9.2748 1.255 3.2089 2.496 6.9786 3.188 10.53 0.26 1.3108-0.144 2.6543 0.1 4.0579 0.489 2.9832 1.762 5.9783 2.319 9.178 2.17 12.586 5.721 26.851 6.377 37.969 1.131 7.4348 4.98 16.2 4.25 23.187-0.176 1.6014-1.268 2.7861-1.642 4.3473-0.807 3.2987-0.666 6.9498-1.643 10.434-1.245 4.4517-2.673 9.1696-3.381 12.753-1.11 5.5369-1.4 11.763-1.449 17.294-0.06 5.7349-0.258 11.778 0.579 16.907 1.426 8.777 3.193 17.338 5.991 25.989 1.165 3.5893 1.902 6.4234 1.738 10.337-1.82 3.1842-4.033 5.8508-4.927 9.0815-2.556 9.3396 3.691 19.874 5.314 29.177 1.348 0.8501 3.083 0.218 4.347 0.966 0.205 4.3716 0.275 8.3967 0.677 12.366 2.958 4.0561 7.208 6.4505 11.787 10.241 1.684 1.3819 3.514 2.8859 5.313 4.4441 1.778 1.555 4.061 2.8798 5.603 4.4441 4.996 5.0239 6.392 13.149 10.628 18.646 4.433 5.7534 10.693 7.9011 17.293 10.337 4.201 0.1794 8.447-0.3747 13.236-0.097 4.13-1.9721 8.76-2.0076 12.56-4.4438 1.267-2.736 4.032-3.9566 5.506-6.4731-0.59-1.4716-0.962-3.7696-0.483-5.5067-2.325-4.6253-2.391-10.112-4.444-14.202-0.733-1.4779-2.292-2.8537-3.285-4.2511-3.335-4.7454-6.404-9.0016-9.081-13.816-3.623-6.4985-7.962-12.488-9.854-20.675-1.308-1.997-4.258-5.4945-4.251-8.2121 0-2.5721 2.902-4.7671 1.449-7.7288 4.198-10.629 6.695-20.471 6.473-31.882-0.06-3.4471-1.49-6.633-2.319-10.241-2.943-12.938-4.042-28.102-3.671-42.799 0.104-4.2015-0.03-8.4063 0.193-12.366 0.346-6.2575 1.701-12.434 1.643-18.453-0.05-5.2742 1.042-10.536 1.255-15.844 0.282-6.7766-0.47-13.815-0.386-20.675 0.1-7.5528 1.273-14.992 1.063-22.124-0.112-3.3663-0.74-6.6406-0.87-10.048-0.07-2.1824 0.398-4.4217 0.29-6.6661-0.253-5.3639-2.155-11.026-3.092-16.81-2.565-15.906-3.395-30.314-5.12-42.992-0.414-3.0019-1.675-5.7386-2.222-8.5982-0.693-3.543-0.413-7.2019-0.966-10.627-1.178-7.4137-3.212-14.579-4.154-21.158-0.538-3.741-0.341-7.5983-1.16-11.11-1.586-6.8942-5.477-12.671-8.405-18.743 0.98-1.3912 2.841-2.195 3.091-3.8645 0.254-1.6013-1.314-3.3394-1.642-5.1205-1.184-6.5078-0.836-14.792-1.642-23.476-0.708-7.5681-1.021-15.826-1.546-23.573-0.739-10.595 0.521-19.894-0.966-28.984-0.733-4.4857-2.801-8.4795-1.546-12.269-0.702-0.6713-0.687-1.0088-0.869-2.0289-1.203-6.8727 0.379-16.356 1.449-24.443 0.38-2.8347 0.331-5.904 0.869-8.4051 0.653-3.005 1.748-5.5972 2.029-8.695 0.3-3.1503 0.4-5.9689-0.29-9.1783 0.758-0.5653-0.635 0.3914-0.579-0.5793 3.134-7.0739 7.432-15.016 9.661-22.414 0.869-2.8969 0.949-5.9624 2.028-8.6954 1.432-3.6354 4.044-6.72 5.701-9.9508 2.291-0.2412 3.882-2.2331 5.7-2.802 2.071-0.6551 4.227-0.1367 6.28-0.4828 2.028-0.3555 4.74-1.5232 7.149-2.2222 6.934-2.0466 12.32-4.2432 17.003-7.1489 1.339-0.8506 2.886-1.1309 3.962-1.8359 5.017-3.3481 8.822-8.7569 13.428-12.559 4.409-3.6295 10.018-5.8345 14.396-9.3716 2.17-1.7807 4.206-3.7189 6.376-5.4101 2.275-1.7867 5.139-3.1903 7.053-5.0239 2.133-2.0525 3.454-5.182 5.507-7.439-0.248-1.9476 0.534-3.734 0.676-5.7001 0.402-5.5646-1.356-9.8489-2.222-14.588l0.1-0.097c-1.441-7.834-1.403-15.794-2.222-24.346-1.027-10.842-3.738-21.145-6.184-31.109-1.146-4.7084-2.432-9.2302-4.154-13.719-0.868-2.2816-1.782-4.6071-2.512-7.0526-2.64-8.7923-3.028-18.404-4.057-26.665-0.371-2.9897-1.692-5.8395-2.029-8.7919-0.108-0.9952 0.245-2.2543 0.193-3.188-0.182-3.4719-2.173-8.7977 1.16-10.724-1.009-8.8821 12.996-27.118-3.575-28.887-1.481-1.9847-3.691-3.159-6.087-4.1541zm-265.78 10.24c0.02 0.015 0.07-0.015 0.1 0 0.05 0.5164 0.116 0.9491 0.29 1.353-0.173-0.4039-0.334-0.8366-0.386-1.353zm0.966 2.4155c0.423 0.6588 0.894 1.2437 0.966 1.8355-0.07-0.5918-0.543-1.1767-0.966-1.8355zm-7.729 23.863c-0.872 2.4769-1.561 5.332-2.608 7.9225-0.698 1.7266-1.611 3.2909-2.705 4.6374 1.094-1.3465 2.007-2.9108 2.705-4.6374 1.047-2.5905 1.736-5.4456 2.608-7.9225zm265.3 10.628c0.04 0.025 0.06 0.071 0.1 0.097-0.06 0.1743-0.264 0.2566-0.387 0.3864 0.138-0.148 0.221-0.2776 0.29-0.4829zm14.298 8.1153c0.243 1.5171 0.47 3.0413 0.58 4.6374 0.08 1.0781 0.155 2.1246 0.29 3.1881-0.134-1.0635-0.312-2.11-0.387-3.1881-0.109-1.5961-0.24-3.1203-0.483-4.6374zm-293.51 9.0812c-0.06 0.8002-0.23 1.5335-0.483 2.3187 0.253-0.7852 0.426-1.5185 0.483-2.3187zm157.19 7.5361c0.495-0.019 1.046 0.044 1.546 0.097-1.001-0.1045-2.024-0.059-2.995 0.097 0.486-0.078 0.955-0.1739 1.449-0.193zm-12.849 4.6373c-2.385 1.164-4.789 2.5082-7.053 4.0573 2.264-1.5491 4.668-2.8933 7.053-4.0573zm12.463 18.163c0.01-0.019 0.08 0.018 0.1 0-0.244 0.3035-0.391 0.7123-0.484 1.1592 0.09-0.4469 0.14-0.8557 0.387-1.1592zm-6.473 5.4102c-0.27 0.7849-0.787 1.6001-1.256 2.4151 0.469-0.815 0.986-1.6308 1.256-2.4151zm-27.631 4.1541c-0.545 2.8328-0.971 5.7949-1.546 8.5987-0.383 1.8688-0.848 3.6424-1.546 5.2166 0.698-1.5742 1.163-3.3478 1.546-5.2166 0.575-2.8038 1.001-5.7659 1.546-8.5987zm29.466 4.7342c-0.04 0.1922-0.02 0.4003 0 0.5793 0.04 0.4344 0.169 0.7785 0.29 1.1593-0.12-0.3808-0.348-0.7249-0.386-1.1593-0.02-0.179 0.05-0.3871 0.1-0.5793zm5.314 0.3864c0.295 0.4705 0.605 0.9311 0.773 1.449 0.119 0.3546 0.15 0.6895 0.193 1.0626-0.04-0.3731-0.17-0.708-0.29-1.0626-0.168-0.5179-0.381-0.9782-0.676-1.449zm-15.651 2.9948c0.4 0.1309 0.999 0.1059 1.353 0.2897-0.354-0.1837-0.953-0.1587-1.353-0.2897zm-4.251 1.3525c0.316 0 0.571 0.073 0.773 0.1933-0.207-0.091-0.467-0.1933-0.773-0.1933zm20.578 0.483c-0.144 0.3701-0.426 0.7881-0.676 1.1593 0.274-0.3942 0.523-0.7661 0.676-1.1593zm3.092 1.6424c-0.232 1.4701 0.431 3.4142 1.642 4.4443-1.21-1.0295-1.897-2.9627-1.642-4.4443zm141.25 2.9949h0.1c1.41 3.305 2.693 6.8157 3.671 10.434-0.978-3.6183-2.358-7.129-3.768-10.434zm-138.25 2.1258h0.1l2.029 2.5115-2.126-2.5115zm-47.05 1.1593c-0.164 0.1235-0.386 0.2906-0.58 0.3865v-0.097c0.194-0.096 0.415-0.1657 0.58-0.2897zm32.462 0.7729c0.03 0 0.07-0.015 0.1 0-0.04 0.1744 0 0.2533 0 0.3865 0-0.1368-0.133-0.2066-0.1-0.3865zm-8.599 0.4829c-0.904 0.2395-1.945 0.9164-2.995 1.3526 1.05-0.4365 2.089-1.1145 2.995-1.3526zm8.985 0.6765c0.322 0.2003 0.797 0.3221 1.16 0.4829-0.382-0.1725-0.832-0.2449-1.16-0.4829zm159.8 7.8253c0.891 7.6819 1.432 15.053 2.513 22.414 0.359 2.4539 0.85 4.8826 1.352 7.3425h-0.1c-0.495-2.4593-0.899-4.8894-1.256-7.3425-1.07-7.3592-1.677-14.739-2.512-22.414zm-123.47 5.6036c-0.08 0.221-0.02 0.5308 0.1 0.8695h-0.1c-0.109-0.3378-0.08-0.6489 0-0.8695zm0.483 6.8591c-0.02 0.015 0.01 0.084 0 0.097-0.268 0.2412-0.582 0.354-0.966 0.4833-0.769 0.2579-1.712 0.3005-2.608 0.097 0.896 0.204 1.839 0.1614 2.608-0.097 0.384-0.1294 0.698-0.3388 0.966-0.5801zm-8.502 2.9951c-0.179 0.1911-0.35 0.4088-0.869 0.2901v-0.097c0.465 0.1059 0.7-0.029 0.869-0.1933zm-53.619 3.8645c0.574 1.1897 0.829 2.468 0.869 3.6712-0.03-1.2035-0.305-2.4809-0.869-3.6712zm0.773 5.4103c-0.234 1.7944-0.855 3.633-1.546 5.3138 0.689-1.6808 1.308-3.5189 1.546-5.3138zm9.757 2.512c-0.158 1.0155-0.189 1.9523-0.1 2.705-0.03-0.015-0.07 0.015-0.1 0-0.09-0.7527 0.04-1.6895 0.194-2.705zm33.428 19.516c-0.131 0.439-0.05 0.7457 0.1 1.0628-0.151-0.3171-0.227-0.6238-0.1-1.0628zm-77.482 3.8645c0.497 2.6296-0.06 5.0679-1.063 7.4389 0.994-2.3444 1.531-4.8418 1.063-7.4389zm8.405 4.3473c0.03 1.2477-0.258 2.5861-0.773 3.8645 0.525-1.2725 0.786-2.6146 0.773-3.8645zm83.762 0.7729c0.507 2.0219 0.588 4.4698 0.773 6.8596-0.185-2.3898-0.266-4.8377-0.773-6.8596zm-1.739 0.3864c-0.216 2.1596-0.592 4.4393-1.062 6.7631 0.47-2.3238 0.846-4.6035 1.062-6.7631zm-82.893 4.0581c0.143 0.2294 0.127 0.4668 0.1 0.7729-0.09 0.9179-0.739 2.1296-0.869 2.9948 0.13-0.8652 0.781-2.0769 0.869-2.9948 0.03-0.2702-0.09-0.4641-0.193-0.6765 0.01-0.029 0.09-0.077 0.1-0.097zm105.5 9.8541c2.587 3.4173 5.483 6.7713 8.695 10.338-3.212-3.5662-6.108-6.9202-8.695-10.338zm12.173 21.448c1.296 1.3269 2.683 2.5369 4.251 3.5744 1.568 1.0377 3.312 1.8628 5.217 2.4152-1.905-0.5524-3.649-1.3775-5.217-2.4152-1.568-1.0375-2.955-2.2475-4.251-3.5744zm-166.75 1.3522c-1.159 0.1902-2.457 0.6379-3.768 1.1594 1.343-0.5352 2.586-0.9785 3.768-1.1594zm195.35 1.4493c-1.208 0.2892-2.385 0.6066-3.478 0.7729-1.04 0.1546-2.079 0.3114-3.091 0.483 1.012-0.1716 2.051-0.4252 3.091-0.5795 1.093-0.1662 2.27-0.3872 3.478-0.6764zm-16.907 5.5068h0.1c-0.472 0.8526-0.987 1.5965-1.545 2.4155 0.533-0.7822 0.993-1.6036 1.449-2.4155zm-173.22 5.7002c0.02-0.016 0.08 0.016 0.1 0-0.93 0.9526-1.823 1.8958-2.706 2.8983 0.868-0.9867 1.695-1.9616 2.609-2.8983zm166.17 9.7576c-0.08 0.5914-0.132 1.1681-0.289 1.7394-0.315 1.15-0.772 2.3007-1.256 3.4779 0.484-1.1772 0.844-2.3279 1.159-3.4779 0.158-0.5713 0.309-1.148 0.386-1.7394zm-4.83 12.173c-0.529 1.1182-0.948 2.1554-1.353 3.1881-0.07 0.1644-0.181 0.3919-0.193 0.5796 0.02-0.1877 0.03-0.4152 0.1-0.5796 0.405-1.0327 0.92-2.0699 1.45-3.1881zm-5.12 25.795c0.02 0.3078 0.113 0.6021 0.193 0.8697-0.507 1.7596-0.999 3.5747-1.449 5.5066 0.45-1.9319 0.845-3.747 1.352-5.5066-0.08-0.2676-0.07-0.5619-0.1-0.8697zm-2.029 55.165c0.672 4.5224 0.889 9.1792 0.966 13.816-0.08-4.6365-0.294-9.2933-0.966-13.816zm4.057 72.556c0.267 1.8735 0.68 3.6502 1.353 5.217 0.224 0.5223 0.484 0.9739 0.773 1.449-0.175 0.5071-0.443 1.1219-0.676 1.6426 0.233-0.5207 0.404-1.1355 0.579-1.6426-0.289-0.4751-0.452-0.9267-0.676-1.449-0.673-1.5668-1.086-3.3435-1.353-5.217zm-93.23 12.27c0.661 0.1236 1.453 0.2963 2.319 0.3864-0.819-0.084-1.597-0.1776-2.222-0.2899-0.267-0.041-0.459 9e-4 -0.58 0.097-0.12 0.096-0.245 0.2192-0.289 0.3864 0.05-0.1922 0.13-0.2949 0.289-0.3864 0.118-0.068 0.256-0.2285 0.483-0.1929zm61.252 2.5117c-0.558 0.1397-1.101 0.3403-1.642 0.5799-1.632-0.2544-3.127-0.448-4.541-0.4833 1.414 0.035 2.909 0.1324 4.541 0.3866 0.541-0.2396 1.084-0.3438 1.642-0.4832zm-120.18 0.8695c3.68 0.4323 7.441 0.6475 11.207 0.5798-3.764 0.065-7.53-0.1426-11.207-0.5798zm145.01 1.1595c0.04 1.4956-0.167 3.1932-0.193 4.6373 0.02-1.4441 0.232-3.1417 0.193-4.6373zm-134.77 1.3525c0.02 0.016-0.02 0.077 0 0.097-1.295 0.3558-2.261 0.3209-3.285 0.29-1.024-0.031-2.08-0.069-3.574 0.1931 1.494-0.2688 2.55-0.2222 3.574-0.1931 1.024 0.029 1.99-0.032 3.285-0.3865zm52.267 0.29c0.332-0.072 0.629-0.056 0.869 0-0.481-0.1132-1.258 0.2724-1.835 0.1928 0.288 0.04 0.634-0.1206 0.966-0.1928zm-44.055 4.1541c1.465 0.498 3.083 0.8088 4.831 1.0627 0.873 0.1264 1.811 0.2003 2.705 0.2898 2.19 0.2135 4.558 0.5706 6.762 0.7729-2.204-0.202-4.572-0.4612-6.762-0.6764-0.894-0.09-1.832-0.2597-2.705-0.3863-1.748-0.2533-3.367-0.5642-4.831-1.0627zm39.418 1.3525c0.155 1.102 0.176 2.2399 0.1 3.3817 0.08-1.1412 0.06-2.28-0.1-3.3817zm49.078 0.5798h0.1c0.05 0.9809 0.06 1.845 0 2.7051 0.06-0.8276-0.04-1.7652-0.1-2.7051zm-34.297 1.5458c0.03 1.5748 0.07 3.1299 0.1 4.5405-0.03-1.3964-0.07-2.9834-0.1-4.5405zm-10.917 0.1931c0.236 0.2076 0.488 0.4444 0.773 0.5797-0.308-0.1456-0.523-0.3499-0.773-0.5797zm-14.202 0.483c0.121 0.054 0.191 0.1133 0.29 0.1935-0.1-0.079-0.172-0.1383-0.29-0.1935zm59.223 2.029c-0.134 0.3471-0.331 0.5998-0.58 0.8697-0.249 0.2696-0.475 0.5975-0.869 0.7729 0.375-0.1773 0.631-0.5075 0.869-0.7729 0.235-0.2623 0.451-0.5364 0.58-0.8697zm-3.285 1.3525c0.03 6e-4 0.06 0 0.1 0-0.09 0.1353-0.236 0.3073-0.29 0.4829-0.05 0.1759-0.02 0.3466 0 0.5801h-0.1c-0.02-0.2354 0.04-0.4045 0.1-0.5801 0.05-0.1752 0.1-0.3468 0.194-0.4829zm-43.958 5.3138c0.592 0.4761 1.669 0.7275 2.802 0.8694-1.177-0.1475-2.221-0.3524-2.802-0.8694zm14.878 1.3523h0.1c-1.515 6.214-0.777 13.12-0.869 19.612 0.09-6.4954-0.739-13.41 0.773-19.612zm-25.022 57.098c1.27 0.024 2.735 0.015 3.864 0.3865 0.4 0.1324 0.657 0.3545 0.966 0.5797-0.297-0.2059-0.59-0.4548-0.966-0.5797-1.129-0.3747-2.594-0.3624-3.864-0.3865zm36.036 1.2558c0.03 0.015 0.07-0.015 0.1 0 1.148 1.9076 2.234 3.8706 3.381 5.8934-1.147-2.0231-2.33-3.9858-3.478-5.8934zm12.752 10.531c0 0.3834 0.1 0.776 0.1 1.1594h-0.1v-1.1594zm2.319 21.641c1.993 3.7665 4.43 7.3883 5.314 11.497 0.563 2.6279 0.708 4.8392 2.029 7.0529-0.114 0.5564-0.136 1.104-0.1 1.6426 0.119 1.6149 0.799 3.1966 1.159 4.4438 0.306 1.06 0.508 2.1359 0.773 3.285-0.265-1.1491-0.563-2.225-0.87-3.285-0.359-1.2472-0.944-2.8292-1.062-4.4438-0.04-0.5386-0.114-1.0868 0-1.6426-1.32-2.2137-1.37-4.4247-1.933-7.0529-0.883-4.1083-3.321-7.7301-5.313-11.497zm-107.53 2.5119c-0.291 2.4152-0.465 4.8879-0.482 7.3425 0.02-2.4846 0.184-4.8992 0.482-7.3425zm183.08 12.946 0.1 0.097c0.216 1.2088-0.878 1.1899-0.773 2.3187-0.217-1.268 0.893-1.2097 0.676-2.4155zm-183.66 50.238c0.211 3.7823 0.513 7.5178 0.869 11.4 0.06 0.1132 0.152 0.1681 0.29 0.1931-0.138-0.025-0.329 0.018-0.386-0.097-0.356-3.882-0.562-7.7143-0.773-11.497zm130.72 17.1c-0.502 1.6886-1.313 3.3411-1.932 5.0238 0.619-1.6827 1.429-3.3352 1.932-5.0238zm-3.961 0.2898c0.316 1.9498 0.591 3.8242 0.676 5.6034-0.08-1.7792-0.36-3.6536-0.676-5.6034zm-114.1 4.3476c0 2.3914-0.335 4.7387-0.773 7.0524 0.438-2.3137 0.773-4.661 0.773-7.0524zm115.35 2.898c-0.235 1.2771 0.139 2.6947-0.1 4.0581-0.714 4.2073-1.72 8.7544-2.802 13.332 1.082-4.5777 2.088-9.1248 2.802-13.332 0.235-1.3606-0.138-2.781 0.1-4.0581zm40.577 17.68c0.835 0.2937 1.613 0.7071 2.125 1.1594 0.513 0.4522 0.796 0.962 0.58 1.6423 0.214-0.6809-0.07-1.1881-0.58-1.6423-0.513-0.4542-1.291-0.8638-2.125-1.1594zm-35.553 3.4781c0.49 3.3604 0.496 6.3899 0.387 9.4679 0.108-3.078 0.103-6.1075-0.387-9.4679zm-124.05 3.9608c0.212 1.651 0.585 3.2737 1.062 4.8309-0.477-1.5572-0.85-3.1799-1.062-4.8309zm124.24 10.241c-0.07 1.6169-0.09 3.2297-0.1 5.0238 0 1.2388 0 2.4331 0.1 3.5744-0.09-1.1413-0.198-2.3356-0.193-3.5744 0.01-1.7941 0.119-3.4069 0.193-5.0238zm-12.463 1.6423c-0.245 2.0219-0.362 4.0004-0.29 5.7967-0.07-1.7963 0.04-3.7748 0.29-5.7967zm-0.193 11.69c-0.06 3.879-0.239 7.7279-0.1 11.69 0.07 1.9811 0.197 3.9618 0.483 5.9899-0.286-2.0281-0.411-4.0088-0.483-5.9899-0.143-3.9622 0.03-7.8111 0.1-11.69zm-103.86 0.29c0.855 2.7289 1.432 5.6223 1.642 8.7918-0.21-3.1695-0.787-6.0629-1.642-8.7918zm116.71 14.105c-0.292 3.115-0.523 6.2172-0.194 9.2746-0.34-3.0605-0.1-6.1561 0.194-9.2746zm-115.36 9.7579c-0.03 3.0272 0.05 6.0276 0.387 8.8883-0.325-2.8332-0.415-5.8935-0.387-8.8883zm0.387 8.9848c0.108 0.9202 0.316 1.8215 0.483 2.705 0.2 1.0543 0.403 2.0432 0.676 2.9951-0.263-0.9252-0.579-1.8763-0.773-2.8986-0.173-0.9142-0.275-1.8482-0.386-2.8015zm113.62 8.1153c0.604 0.6467 0.44 1.2224 0.193 1.9322 0.224-0.6764 0.387-1.3117-0.193-1.9322zm-4.638 3.0916c0.219 1.3421 0.46 2.6733 0.58 4.0576-0.02 0.038-0.07 0.059-0.1 0.097-0.12-1.418-0.259-2.7811-0.483-4.1544zm4.348 0.2899c-0.131 0.4459-0.154 0.9313-0.1 1.4492-0.558 0.7342-1.057 1.6035-1.449 2.4153 0.392-0.8122 0.794-1.6811 1.352-2.4153-0.06-0.5179 0.06-1.0033 0.194-1.4492zm-107.43 7.4391c0.883 3.1082 1.38 6.0365 1.546 9.0813-0.171-3.0111-0.673-6.0056-1.546-9.0813zm101.64 5.6034c-0.145 0.5344-0.288 1.0814-0.483 1.5458-0.266 0.65-0.64 1.4165-0.966 2.2219 0.326-0.8054 0.603-1.5719 0.87-2.2219 0.204-0.4879 0.428-0.9834 0.579-1.5458zm-2.415 6.3764c-0.422 1.3383-0.741 2.718-0.773 4.0576 0.03-1.3396 0.351-2.7193 0.773-4.0576zm-0.676 5.3138c0.162 1.1593 0.642 2.4274 1.159 3.6709-0.517-1.2438-0.997-2.5116-1.159-3.6709zm-72.845 11.4c-1.935 0.2906-3.916 0.5599-5.797 0.6764-0.02-0.038-0.08-0.056-0.1-0.097 1.909-0.1118 3.927-0.2852 5.893-0.5801zm-17.39 2.3187c0.719 0.3799 1.506 0.6808 2.415 0.8696-0.909-0.1888-1.696-0.4897-2.415-0.8696zm39.804 0.6764c-0.217 0.6492-0.402 1.3449-0.773 1.9323 0.334-0.6755 0.573-1.2862 0.773-1.9323zm-38.549 1.4493h0.1c0.359 0.6045 0.662 0.8772 0.87 1.2559-0.208-0.3787-0.608-0.6514-0.966-1.2559zm36.326 0.193c0.202-0.065 0.364-0.023 0.484 0-0.12-0.023-0.282 0.032-0.484 0.097-0.59 0.3835-1.317 0.7005-2.028 1.0624 0.711-0.3619 1.438-0.7752 2.028-1.1592zm-35.166 1.7393c0.01 0.2927 0.02 0.656-0.1 1.1593-0.02-0.016-0.08 0.015-0.1 0 0.113-0.5033 0.206-0.8666 0.192-1.1593zm131.49 0.3864c-1.44 0.096-2.616 0.482-3.767 0.9658 1.151-0.4838 2.327-0.8708 3.767-0.9658zm9.661 0c0.652 0 1.308 0.047 1.933 0.1929v0.097c-1.875-0.4371-3.93-0.1441-5.99 0.4832 1.373-0.418 2.753-0.7636 4.057-0.7729zm-6.086 1.449c-2.083 0.788-4.244 1.7223-6.28 2.4155-0.456 0.1548-0.905 0.3593-1.353 0.4828-0.198 0.038-0.492 0.062-0.676 0.097 0.661-0.156 1.351-0.3484 2.029-0.5793 2.036-0.6932 4.197-1.6274 6.28-2.4155zm-9.082 0.2897c-2.127 1.1637-3.918 2.6254-6.086 3.2852 2.168-0.6598 3.959-2.1215 6.086-3.2852zm-125.98 2.4155c1.042 0.3787 2.036 0.7926 2.995 1.2561-0.959-0.4635-1.953-0.781-2.995-1.1593 0.02-0.021-0.02-0.075 0-0.097zm136.8 0.097c0.874 0.018 1.716 0.1511 2.608 0.3864-3.567-0.9413-6.92 0.1382-10.24 1.2557 2.49-0.838 5.01-1.6968 7.632-1.6421zm-137.48 0.6761c-0.442 0.4145-0.93 0.6875-1.352 0.7729 0.422-0.085 0.91-0.3587 1.352-0.7729zm143.08 0.966c-1.05 0.3436-2.005 0.889-2.899 1.3527 0.894-0.4622 1.849-1.0088 2.899-1.3527zm-138.06 0.2901c0.421 0.2931 0.822 0.5843 1.16 0.9658 0.765 0.031 1.538 0.048 2.222 0-0.684 0.048-1.457 0.1265-2.222 0.097-0.338-0.3818-0.739-0.7695-1.16-1.0626zm144.72 5.6031c0.03 0.015 0.05-0.015 0.1 0 0.03 0.015-0.03 0.088 0 0.097-1.619 0.6662-3.366 1.1176-5.217 1.5458 1.82-0.4211 3.523-0.9932 5.12-1.6426zm-17.487 2.9952c-1.3 0.2492-2.651 0.7901-4.058 1.2558-0.938 0.3106-1.928 0.5723-2.898 0.6764-0.97 0.1044-1.908 0.054-2.899-0.29 0.991 0.3441 1.929 0.3933 2.899 0.29 0.97-0.1029 1.96-0.3667 2.898-0.6764 1.407-0.4643 2.758-1.0041 4.058-1.2558zm-99.124 3.8644c-0.85 0.7782-1.732 1.5653-2.608 2.3187 0.859-0.7388 1.774-1.5563 2.608-2.3187zm-42.412 0.5798c-0.311 0.1557-0.535 0.3799-0.773 0.5796 0.25-0.2205 0.436-0.4109 0.773-0.5796zm144.82 0.097c-1.684 0.4171-3.414 0.8362-5.12 1.0626 1.706-0.2264 3.436-0.6455 5.12-1.0626zm9.082 0.5794c-1.443 0.5435-2.727 1.317-3.961 2.2223 1.234-0.9053 2.518-1.6788 3.961-2.2223zm-146.27 0.8697c0.453 0.1045 0.893 0.1614 1.353 0.3864 0.01 0.021 0 0.072 0 0.097-0.46-0.225-0.9-0.379-1.353-0.4832zm-1.835 7.3425c0.509 0.2738 0.983 0.5496 1.449 0.8697-0.02 0.015 0.02 0.084 0 0.097-0.465-0.3202-0.94-0.6919-1.449-0.9661zm-4.445 0.4831c0.04 0.025 0.06 0.071 0.1 0.097-1.157 0.044-2.167 0.103-3.091 0.2901 0.895-0.1821 1.881-0.3386 2.995-0.3866zm166.08 0.193c-0.01 0.044 0.02 0.046 0 0.097-1.631 0.1-3.209 0.2105-4.734 0.3864 1.524-0.1781 3.103-0.3818 4.734-0.4832zm-22.511 2.7051c-1.47 0.3459-2.908 0.5837-4.251 0.5799 1.343 0 2.781-0.2343 4.251-0.5799zm17.197 1.5458c-2.672 0.5231-5.443 1.2947-8.115 1.6425 2.673-0.3478 5.444-1.1191 8.115-1.6425zm-14.395 1.256c1.154 0.4208 2.388 0.5726 3.671 0.5798-1.283 0-2.517-0.1596-3.671-0.5798zm-156.9 0.9662c0.45 0.3107 0.855 0.6576 1.352 0.8693-0.496-0.2117-0.999-0.4615-1.449-0.7728 0.02-0.035 0.07-0.062 0.1-0.097zm6.28 1.9323c1.741 0.1838 3.576 0.2853 5.313 0.6764-1.737-0.3911-3.573-0.4929-5.313-0.6764zm-6.957 2.8015c-1.381 0.1015-2.716 0.3138-3.768 0.6765 1.052-0.3625 2.387-0.5745 3.768-0.6765zm192.45 5.8935c0.07 0.2507 0.03 0.5212 0.1 0.7729-0.04 0.3147-0.194 0.605-0.29 0.8696 0.15-0.4566 0.255-1.0149 0.193-1.6425zm-43.379 2.2219c0.07 0.028 0.13 0.068 0.193 0.097 1.381 2.1162 3.028 4.5424 5.024 6.6663-2.03-2.1591-3.824-4.6218-5.217-6.7631zm-123.95 3.0916c-0.606 0.4754-1.325 0.9988-1.835 1.5457 0.02-0.02-0.02-0.076 0-0.096 0.51-0.5487 1.229-0.9741 1.835-1.4493zm-2.415 2.3186c-0.611 0.9052-1.114 1.9471-1.835 2.7052 0.721-0.7606 1.224-1.8006 1.835-2.7052zm141.83 0.8697c1.767 0.7413 3.636 1.2103 5.797 1.3526-2.161-0.1423-4.03-0.6113-5.797-1.3526zm-8.695 2.029c1.073 0.9639 2.254 1.8469 3.478 2.5116-1.251-0.6699-2.384-1.5291-3.478-2.5116zm-136.22 0.8693c-1.389 0.8657-3.148 1.3402-4.734 2.0287 1.586-0.6885 3.345-1.1627 4.734-2.0287zm-34.104 1.3526c-0.105 0.075-0.143 0.1567-0.29 0.1932 0.118-0.029 0.206-0.1332 0.29-0.1932zm176.61 1.2561c0.621 0.028 1.367 0.01 2.125 0.097-0.724-0.087-1.518-0.074-2.125-0.097zm21.93 0c-0.04 0.01-0.06 0.086-0.1 0.097-2.001 0.606-4.272 0.9924-6.666 1.2558 2.394-0.2634 4.761-0.7466 6.763-1.3522zm-197.09 5.4103c0.525 0.3372 0.993 0.6823 1.545 0.9658-0.551-0.2835-1.021-0.5321-1.545-0.8694-0.02-0.029 0.01-0.068 0-0.097zm28.404 0.5793c-2.96 1.3835-4.721 2.9413-7.343 3.6716-1.049 0.2918-2.254 0.4214-3.671 0.3864 1.417 0.035 2.622-0.095 3.671-0.3864 2.622-0.7303 4.383-2.2881 7.343-3.6716zm-25.119 1.1594c2.316 0.9491 4.817 1.5445 7.535 2.029-2.718-0.4845-5.219-1.0805-7.535-2.029z"/>
   <rect x="-15331" y="3088.2" width="309.13" height="221.75"/>
  </g>
 </g>
</svg>
