<?xml version="1.0" encoding="UTF-8"?>
<svg viewBox="0 0 640 480" xmlns="http://www.w3.org/2000/svg">
 <switch>
  <g>
   <path d="m251.13 89.745l-6.928 1.085-7.59 2.651-4.819 2.229-7.409 5.421-5.362 4.52-8.013 8.795-6.445 8.854-7.229 12.893-4.217 9.939-4.037 10.665-4.457 14.157-3.376 16.566-2.289 17.591-1.626 24.939 0.784 14.459 0.843 12.832 2.289 18.434 3.254 14.459 4.759 16.146 5.723 13.614 7.229 13.614 8.795 12.832 7.53 8.133 4.639 4.217 4.64 3.675 5.24 3.253 5.242 2.469 4.698 1.205 4.639 1.267 5.542 0.902 5.12 0.543 8.855-0.843 11.989-73.015-5.542-203.08-15.182-6.144-7.289 0.723z" fill="#fff" fill-rule="evenodd" stroke="#000" stroke-linejoin="bevel" stroke-miterlimit="2.414" stroke-width=".72"/>
   <path d="m260.11 88.781l-6.808 1.326-6.025 1.808-6.626 2.952-5.603 3.554-5.663 4.578-5.602 5.061-7.229 8.854-5.421 8.014-6.566 11.265-4.82 11.747-5 13.978-4.097 16.022-2.892 16.025-2.409 20.905v27.229l0.783 14.399 2.35 18.494 3.254 14.458 4.036 12.773 5.603 16.023 5.542 11.387 4.94 8.795 5.542 7.229 8.796 9.64 4.458 3.977 4.458 3.432 5.542 3.313 5.603 2.892 7.29 2.351 4.277 0.843 5.181 0.24 6.566-7.41 12.892-252.78-22.352-23.377z" fill-rule="evenodd" stroke="#000" stroke-linejoin="bevel" stroke-miterlimit="2.414" stroke-width=".72"/>
   <path d="m268.3 88.119l-8.434 0.662-7.169 2.41-7.229 3.855-8.314 5.784-6.927 6.625-7.29 8.676-6.145 9.338-4.94 8.553-4.458 9.218-6.024 16.205-4.94 20.062-3.313 18.494-1.567 19.097-0.24 16.807 0.422 8.916 0.843 11.327 1.566 14.398 3.193 16.866 3.253 13.616 6.325 17.711 7.29 14.337 5.603 9.821 9.458 11.867 8.192 7.53 3.795 3.012 3.917 2.59 3.735 2.049 3.795 1.686 6.989 2.471 8.976 1.085 2.891 0.301 32.471-53.496-22.47-203.08-13.254-28.793z" fill="#fff" fill-rule="evenodd" stroke="#000" stroke-linejoin="bevel" stroke-miterlimit="2.414" stroke-width=".72"/>
   <path d="m275.95 87.999h-4.82l-3.977 0.782-6.385 1.989-6.446 2.83-6.265 4.278-5 3.735-6.386 6.445-5.181 6.144-4.458 6.326-5.603 9.158-6.446 12.109-5.604 16.868-2.47 9.337-1.988 10-3.795 19.157-1.325 11.386-0.844 11.084-0.301 4.88v7.169l-0.06 11.327 0.361 7.892 1.627 15.24 1.626 11.206 3.193 12.893 4.819 16.146 5.542 15.18 9.64 17.711 10.421 12.711 4.819 4.939 4.879 4.219 8.796 6.264 5.362 2.772 5.06 1.928 3.976 1.085 4.036 0.542 71.87 8.013 7.531-297.54-76.204 3.795v8e-6z" fill-rule="evenodd" stroke="#000" stroke-linejoin="bevel" stroke-miterlimit="2.414" stroke-width=".72"/>
   <path d="m314.69 109.14l-81.991 3.674-1.626 2.108-2.952 3.917-1.205 1.868 88.678-2.893-0.904-8.674z" fill-rule="evenodd"/>
   <path d="m285.83 162.16l-78.015 1.928-2.651 9.699-2.168 9.398-1.627 8.976-1.084 8.917-0.783 10.422 81.508 1.687 4.82-51.027z" fill-rule="evenodd"/>
   <path d="m274.2 221.92l-75.303-1.023-0.482 11.144v7.168l0.361 7.652 80.304 0.963-4.88-25.904z" fill-rule="evenodd"/>
   <path d="m425.41 133.24h5.241l0.483 0.182 0.602 0.12 0.48 0.723v0.36101l-0.239 0.784-0.241 0.361-0.724 0.24-0.663 0.182h-4.758l-0.181-2.953z" fill="#fff" fill-rule="evenodd" stroke="#000" stroke-linejoin="bevel" stroke-miterlimit="2.414" stroke-width=".72"/>
   <path d="m444.63 231.8h5.243l0.422 0.06 0.541 0.18 0.422 0.723v0.36299l-0.121 0.782-0.301 0.361-0.663 0.182-0.783 0.18h-4.697l-0.063-2.831z" fill="#fff" fill-rule="evenodd" stroke="#000" stroke-linejoin="bevel" stroke-miterlimit="2.414" stroke-width=".72"/>
   <path d="m428.84 322.22h5.303l0.481 0.18 0.541 0.122 0.423 0.723v0.422l-0.181 0.721-0.242 0.483-0.723 0.18-0.724 0.121h-4.757l-0.121-2.952z" fill="#fff" fill-rule="evenodd" stroke="#000" stroke-linejoin="bevel" stroke-miterlimit="2.414" stroke-width=".72"/>
   <path d="m344.5 84.686l-5.421 0.843-4.76 1.686-4.517 2.411-5.845 3.192-5.422 4.218-5.421 4.76-8.375 9.276-6.746 9.278-7.591 13.434-4.397 10.603-4.277 11.146-4.639 14.999-3.554 17.351-2.531 18.554-1.566 26.266 0.783 14.699 0.783 13.616 2.531 19.337 3.372 15.422 5.062 16.808 5.963 14.337 7.531 14.279 8.494 13.495 6.447 8.251 4.757 5.241 5.182 4.458 6.024 4.157 5.603 2.771 4.037 1.266 5.06 0.783 7.953 0.843 6.082 0.543 7.169 0.663 13.917-79.642-5.963-213.38-13.977-6.567-11.748 0.604z" fill="#fff" fill-rule="evenodd" stroke="#000" stroke-linejoin="bevel" stroke-miterlimit="2.414" stroke-width=".72"/>
   <path d="m356.8 84.082l-8.977 1.325-6.385 2.17-6.206 2.831-6.566 4.519-4.88 4.036-5.601 5.301-7.471 9.338-5.725 8.313-6.987 11.868-5.121 12.348-5.241 14.941-4.217 16.748-3.192 16.868-2.41 22.049v28.132l0.722 15.302 2.47 19.518 3.495 15.242 3.975 13.916 6.146 16.327 5.965 11.867 4.998 9.278 5.362 8.133 8.374 10.481 5.903 5.784 6.387 4.88 6.627 3.675 5.603 2.168 6.446 1.145 11.986 1.145 3.797-9.58 13.433-265.67-22.71-24.398z" fill-rule="evenodd" stroke="#000" stroke-linejoin="bevel" stroke-miterlimit="2.414" stroke-width=".72"/>
   <path d="m367.46 83.359l-11.265 0.723-7.711 2.471-7.712 3.976-8.434 6.146-7.288 6.987-7.712 9.036-6.446 9.94-5.303 9.037-4.577 9.64-6.386 17.047-5.182 21.146-3.433 19.397-1.627 20.302-0.301 17.289 0.422 9.338 0.903 11.869 1.687 15.06 3.313 17.711 3.433 14.399 6.749 18.674 7.289 15.904 5.361 9.399 8.855 12.772 7.411 7.952 6.625 5.241 4.097 2.35 4.219 2.169 5.421 2.289 6.627 1.627 8.554 0.963 3.855 0.301 33.434-57.593-23.734-213.32-11.144-30.243z" fill="#fff" fill-rule="evenodd" stroke="#000" stroke-linejoin="bevel" stroke-miterlimit="2.414" stroke-width=".72"/>
   <path d="m370.29 83.299l5.302 0.663 10.303 3.374 8.554 4.82 9.759 7.832 7.712 8.493 7.891 10.964 6.81 11.385 3.976 9.098 6.688 17.531 5.421 18.855 3.133 17.531 2.167 22.109 1.085 18.434-1.085 13.555-1.082 17.711-3.014 19.399-3.673 16.507-5.304 15.18-4.879 12.048-5.844 11.688-7.348 11.747-8.737 10.782-7.771 7.712-6.747 5.361-9.036 4.52-6.929 2.409-4.336 1.264-5.061 0.242-6.809-1.145-7.229-2.169-6.928-3.555-8.916-6.626-8.073-8.013-9.276-12.41-8.073-13.555-4.338-9.216-3.976-9.88-5.904-19.037-4.216-17.833-3.313-26.326-0.783-26.146 0.964-23.434 3.794-22.351 5.543-21.748 7.048-19.277 4.7-10.061 5-9.458 4.759-7.41 5.482-7.59 5.362-5.783 6.264-5.542 9.458-6.748 6.809-3.134 6.93-2.107 4.757-0.603 3.009-0.057z" fill-rule="evenodd" stroke-miterlimit="2.414" stroke-width="0"/>
   <path d="m365.77 380.9l-3.795-0.542-7.109-2.169-6.928-3.495-7.83-6.506-7.893-7.77-8.734-12.11-7.592-12.589-4.278-9.819-3.674-9.64-5.663-18.676-4.156-17.529-3.072-25.665-0.782-25.543 0.901-23.012 3.797-21.929 5.241-21.265 3.012-9.58 3.553-9.518 4.521-10.061 4.938-9.759 4.521-7.109 5.181-7.108 4.761-5.423 5.48-5.481 9.699-6.445 6.325-3.194 6.686-1.987 4.579-0.603" fill-rule="evenodd" stroke="#000" stroke-linejoin="bevel" stroke-miterlimit="2.414" stroke-width=".72"/>
   <path d="m360.59 87.577l6.385-1.386h3.918l4.577 0.723 4.457 0.903 5.544 2.41 5.239 2.831 4.578 3.133 6.991 5.603 6.987 7.71 6.325 8.493 6.747 10.965 5.483 11.747 5.361 14.821 2.892 10.059 3.915 14.519 1.928 13.976 1.807 15.484 1.146 19.519v8.011l-0.361 12.592-1.324 16.627-2.17 14.517-3.495 16.327-3.855 12.651-3.855 10.964-4.156 10.241-6.024 10.904-6.507 9.699-8.073 9.699-4.88 4.94-5.722 4.819-6.988 4.82-5.664 2.529-5.963 2.229-4.938 0.723-5.605-0.481 7.171-2.471 8.192-4.938 7.35-5.664 8.435-9.578 7.771-10.724 6.567-10.903 5.904-14.096 5.36-15.543 4.398-16.928 2.109-10.542 1.687-10.603 1.688-19.518 0.601-16.387-1.024-16.928-1.445-14.52-2.771-17.65-2.832-13.375-2.952-11.084-4.035-11.929-5.663-13.674-5.002-9.158-6.565-9.638-7.771-9.519-6.565-5.963-5.966-4.458-5.781-3.253-5.603-2.411-3.256-0.783-2.467-0.843-2.235-0.24z" fill="#fff" fill-rule="evenodd" stroke="#000" stroke-linejoin="bevel" stroke-miterlimit="2.414" stroke-width=".72"/>
   <path d="m231.85 95.709h2.952l5.783-0.965 5.361-1.023 3.253-0.904 5.361-2.531-5.181 0.181-5.481 0.182-4.276 1.205-3.856 1.928-3.916 1.927z" fill="#fff" fill-rule="evenodd" stroke="#000" stroke-linejoin="bevel" stroke-miterlimit="2.414" stroke-width=".72"/>
   <path d="m287.94 87.999l-48.194 0.782-0.662 0.122-0.542 0.361-0.301 0.482v0.783l0.18 0.481 0.542 0.363 0.663 0.18 49.398-0.903-1.084-2.651z" fill="#fff" fill-rule="evenodd" stroke="#000" stroke-linejoin="bevel" stroke-miterlimit="2.414" stroke-width=".72"/>
   <path d="m246.37 92.156l-1.084 0.36-1.687 0.483-1.867 0.361-1.747 0.18-0.964 0.122" fill="#fff" fill-rule="evenodd" stroke="#000" stroke-linejoin="bevel" stroke-miterlimit="2.414" stroke-width=".72"/>
   <path d="m283.48 90.106l-1.505 0.664-2.59 1.867-1.386 1.386-0.542 0.601v0.542l0.181 0.182 0.542 0.242h28.736l1.385-0.242 1.387-0.783 2.228-1.807 1.688-1.385 1.085-1.386v-0.724l-0.361-0.361-26.868 0.904-3.98 0.3z" fill="#fff" fill-rule="evenodd" stroke="#000" stroke-linejoin="bevel" stroke-miterlimit="2.414" stroke-width=".72"/>
   <path d="m283.18 91.373l0.06-1.807 0.482-2.409 0.361-1.026 1.085-0.843 0.843-0.24 10.181-0.905h2.41l11.445 1.688 1.387 0.24 0.36 0.362 0.361 0.725 0.482 2.709-0.12 0.784-2.17 1.626-0.602 0.361-11.688 1.205h-2.168l-12.471-1.988-0.24-0.12v-0.362h0.002014z" fill="#fff" fill-rule="evenodd" stroke="#000" stroke-linejoin="bevel" stroke-miterlimit="2.414" stroke-width=".72"/>
   <path d="m292.16 87.938l2.771 0.062 3.675 0.18 9.999 0.24h0.36301l0.239 0.06 0.543 0.06 1.325-1.384 0.362-0.242 0.301 0.12 0.602 3.194-1.567 1.205-0.781 0.541-1.566 0.302-10.603 1.084h-1.687l-0.784-0.122 0.844-0.723 0.302-0.903v-0.963l-0.302-1.206-0.542-0.663-1.385-0.36-1.085-0.241-1.024-0.241z" fill="#fff" fill-rule="evenodd" stroke="#000" stroke-linejoin="bevel" stroke-miterlimit="2.414" stroke-width=".72"/>
   <path d="m284.5 87.276l5.903 0.421 0.181 0.06h-2.11l-2.409-0.242-1.506-0.12-0.241-0.06v-0.059998h0.18201v9.99e-4z" fill="#fff" fill-rule="evenodd" stroke="#000" stroke-linejoin="bevel" stroke-miterlimit="2.414" stroke-width=".72"/>
   <path d="m297.7 84.985l6.205 0.603 5.241 0.723 0.301 0.241-0.241 0.24-0.782 0.301-7.169-0.18-4.64-0.242-2.71-0.241 1.204-0.362 0.964-0.24 0.482-0.241 0.543-0.421 0.24-0.182h0.362v9.99e-4z" fill="#fff" fill-rule="evenodd" stroke="#000" stroke-linejoin="bevel" stroke-miterlimit="2.414" stroke-width=".72"/>
   <path d="m343.54 86.553l0.542 1.987 0.904 1.325 1.505 1.024 0.603 3.193 4.339-2.952 6.507-2.71 3.613-1.145 3.494-0.723-0.301-3.073-7.952 0.241-7.291 0.603-2.648 0.723-3.315 1.507z" fill="#fff" fill-rule="evenodd" stroke="#000" stroke-linejoin="bevel" stroke-miterlimit="2.414" stroke-width=".72"/>
   <path d="m346.49 90.83l2.953-1.868 4.94-2.409 6.506-2.229 3.253-0.603" fill="#fff" fill-rule="evenodd" stroke="#000" stroke-linejoin="bevel" stroke-miterlimit="2.414" stroke-width=".72"/>
   <path d="m311.19 87.697l42.229-3.253 9.1-0.481 0.842 0.24 0.602 0.543v0.783l-0.06 0.663-0.783 0.422h-0.60098l-50.727 3.493-0.603-0.06-0.423-0.421-0.179-0.844 0.121-0.602 0.482-0.483z" fill="#fff" fill-rule="evenodd" stroke="#000" stroke-linejoin="bevel" stroke-miterlimit="2.414" stroke-width=".72"/>
   <path d="m349.26 84.686l-0.782 0.3-0.543 0.483-0.06 0.601v0.483l0.06 0.604 0.241 0.24" fill="#fff" fill-rule="evenodd" stroke="#000" stroke-linejoin="bevel" stroke-miterlimit="2.414" stroke-width=".72"/>
   <path d="m199.74 131.79l2.41 1.206 1.867 1.625 1.506 2.35 0.603 2.832 0.061 3.374-0.903 2.95-1.688 2.893-1.686 2.109-2.53 2.048-3.253 1.266-3.193 0.723h-3.193l2.289-6.387 2.229-5.902 3.252-7.229 2.229-3.858z" fill="#fff" fill-rule="evenodd" stroke="#000" stroke-linejoin="bevel" stroke-miterlimit="2.414" stroke-width=".72"/>
   <path d="m305.11 159.75l-2.772-3.134-2.831-1.686-2.109-2.108-1.444-3.192-0.604-4.338 0.604-3.735 1.867-3.673 3.071-3.254 4.579-2.47 4.096-0.601h2.832l2.651 3.012-2.29 4.638-2.529 6.266-3.313 8.674-1.808 5.601z" fill="#fff" fill-rule="evenodd" stroke="#000" stroke-linejoin="bevel" stroke-miterlimit="2.414" stroke-width=".72"/>
   <path d="m302.34 156.61l2.409-6.807 3.435-9.096 4.217-9.156" fill="#fff" fill-rule="evenodd" stroke="#000" stroke-linejoin="bevel" stroke-miterlimit="2.414" stroke-width=".72"/>
   <path d="m200.04 134.87l1.326 0.845 0.843 1.205 0.482 0.965 0.362 1.205" fill="#fff" fill-rule="evenodd" stroke="#000" stroke-linejoin="bevel" stroke-miterlimit="2.414" stroke-width=".72"/>
   <path d="m238.3 139.2l0.421-1.024 0.844-0.542 1.205-0.301 23.675-0.302 1.266 0.061 0.664 0.785v0.84299l-2.169 9.518-0.784 0.963-1.144 0.543h-24.52l-1.567-0.302-0.662-1.084v-1.205l2.771-7.953z" fill="#fff" fill-rule="evenodd" stroke="#000" stroke-linejoin="bevel" stroke-miterlimit="2.414" stroke-width=".72"/>
   <path d="m241.49 142.28l-49.459-0.481h-0.72299l-0.603 0.242-0.421 0.359-0.061 0.845 0.181 0.661 0.482 0.363 0.964 0.24 48.857 0.542 0.783-2.771z" fill="#fff" fill-rule="evenodd" stroke="#000" stroke-linejoin="bevel" stroke-miterlimit="2.414" stroke-width=".72"/>
   <path d="m204.74 144.69l-0.302-0.302-0.24-0.422-0.061-0.482v-0.422l0.061-0.481 0.24-0.481 0.242-0.122 0.241-0.12" fill="#fff" fill-rule="evenodd" stroke="#000" stroke-linejoin="bevel" stroke-miterlimit="2.414" stroke-width=".72"/>
   <path d="m202.21 146.74l-0.662 1.386-1.084 1.325-1.266 0.964-1.687 0.783-2.168 0.542-1.868 0.241" fill="#fff" fill-rule="evenodd" stroke="#000" stroke-linejoin="bevel" stroke-miterlimit="2.414" stroke-width=".72"/>
   <path d="m237.33 146.74l-1.807-1.205-0.964-0.843-0.361-1.145 0.12-0.965 0.482-2.469 0.963-0.723 0.904-0.301 11.506-1.205 2.048-0.122 1.808 0.122 10.421 0.481 1.145 0.361 1.326 1.626 0.181 0.903-0.904 4.52-0.482 0.723-1.266 0.24-12.71 0.542-10.241-0.302-2.169-0.238z" fill="#fff" fill-rule="evenodd" stroke="#000" stroke-linejoin="bevel" stroke-miterlimit="2.414" stroke-width=".72"/>
   <path d="m234.56 144.51l0.422-0.481 12.711-0.903 0.481-0.301 0.422-1.567 0.362-2.167 0.421-1.025-0.121 1.205-0.06 2.893 0.181 0.421 0.663 0.361 11.446 0.483 0.482 0.24 1.325 2.469v0.302l-1.325 0.062-12.471 0.479-8.975-0.24-3.013-0.24-0.662-0.364-1.325-0.783-0.542-0.542-0.422-0.302z" fill="#fff" fill-rule="evenodd" stroke="#000" stroke-linejoin="bevel" stroke-miterlimit="2.414" stroke-width=".72"/>
   <path d="m262.46 142.94l0.061-1.205 0.602-2.168 0.181-0.302h0.301l1.084 1.566 0.06 0.723-0.542 3.494h-0.242l-0.3-0.24-1.085-1.384-0.12-0.484z" fill="#fff" fill-rule="evenodd" stroke="#000" stroke-linejoin="bevel" stroke-miterlimit="2.414" stroke-width=".72"/>
   <path d="m251.37 139.44l2.289-0.18 5.422 0.302 2.59 0.241 0.241 0.121v0.42099l-0.724 0.242-1.927 0.12-0.965 0.542-0.963 0.242h-4.097l-1.446-0.422-0.542-0.481-0.542-0.423v-0.36002l0.664-0.365z" fill="#fff" fill-rule="evenodd" stroke="#000" stroke-linejoin="bevel" stroke-miterlimit="2.414" stroke-width=".72"/>
   <path d="m263.9 140.71l43.855-1.446h3.735l1.327 0.362 0.182 0.603v0.60199l-0.362 0.965-0.603 0.361-1.324 0.18-46.508 0.784h-0.24301l-0.36-0.241-0.181-0.483-0.06-0.601 0.06-0.602 0.482-0.484z" fill="#fff" fill-rule="evenodd" stroke="#000" stroke-linejoin="bevel" stroke-miterlimit="2.414" stroke-width=".72"/>
   <path d="m296.43 139.63l-0.48 0.242-0.423 0.723v1.205l0.121 0.481 0.302 0.301 0.181 0.06" fill="#fff" fill-rule="evenodd" stroke="#000" stroke-linejoin="bevel" stroke-miterlimit="2.414" stroke-width=".72"/>
   <path d="m298.36 143.78l-0.181 1.808 0.301 1.987 0.723 2.229 1.206 1.386" fill="#fff" fill-rule="evenodd" stroke="#000" stroke-linejoin="bevel" stroke-miterlimit="2.414" stroke-width=".72"/>
   <path d="m299.8 138.36l1.084-1.024 1.748-1.085 1.687-0.843 1.688-0.543 1.745-0.3" fill="#fff" fill-rule="evenodd" stroke="#000" stroke-linejoin="bevel" stroke-miterlimit="2.414" stroke-width=".72"/>
   <path d="m215.28 227.76l-0.361 1.084-0.844 7.59 0.18 1.688 0.542 1.022 1.325 0.242 24.881 0.242 2.229-0.242 0.844-0.963 0.843-9.038-0.06-1.084-0.421-0.963-0.603-0.362-0.843-0.06h-26.447l-1.265 0.844z" fill="#fff" fill-rule="evenodd" stroke="#000" stroke-linejoin="bevel" stroke-miterlimit="2.414" stroke-width=".72"/>
   <path d="m177.94 218.66l3.615 1.084 2.831 1.386 2.53 2.47 1.506 2.469 0.543 2.229 0.301 2.109-0.061 2.169-0.723 2.892-2.229 3.374-3.192 2.107-2.952 1.145-2.169 0.242-0.542-7.772v-7.109l0.181-3.192 0.361-5.603z" fill="#fff" fill-rule="evenodd" stroke="#000" stroke-linejoin="bevel" stroke-miterlimit="2.414" stroke-width=".72"/>
   <path d="m217.64 230.35l-42.772-2.049-1.024 0.543-0.542 0.783 0.06 0.903 0.301 0.723 0.844 0.302 47.532 1.807-4.399-3.012z" fill="#fff" fill-rule="evenodd" stroke="#000" stroke-linejoin="bevel" stroke-miterlimit="2.414" stroke-width=".72"/>
   <path d="m179.8 221.38l2.108 0.843 1.988 1.326 1.205 1.506 1.084 1.386" fill="#fff" fill-rule="evenodd" stroke="#000" stroke-linejoin="bevel" stroke-miterlimit="2.414" stroke-width=".72"/>
   <path d="m180.34 239.51l1.867-0.783 1.326-0.843 1.506-1.145 0.843-1.264 0.542-1.085 0.361-1.024" fill="#fff" fill-rule="evenodd" stroke="#000" stroke-linejoin="bevel" stroke-miterlimit="2.414" stroke-width=".72"/>
   <path d="m188.42 228.91l-0.301 0.301-0.241 0.422-0.06 0.481v0.60399l0.06 0.603 0.241 0.422 0.241 0.12 0.542 0.18" fill="#fff" fill-rule="evenodd" stroke="#000" stroke-linejoin="bevel" stroke-miterlimit="2.414" stroke-width=".72"/>
   <path d="m215.53 228.79l-0.903 0.06-0.542 0.242-0.301 0.542-0.301 1.324-0.422 2.411 0.181 0.903 0.542 0.663 1.987 1.446 1.025 0.301 11.326 0.903 7.47-0.482 7.651-0.543 0.24-0.06 0.302-0.542 0.421-5.181-0.361-0.542-1.566-1.086-0.361-0.18-12.531-0.663-11.868 0.302-1.989 0.182z" fill="#fff" fill-rule="evenodd" stroke="#000" stroke-linejoin="bevel" stroke-miterlimit="2.414" stroke-width=".72"/>
   <path d="m213.6 234.09l1.326 1.085 0.842 0.662 0.664 0.421 2.169 0.242 9.338 0.603 3.192-0.06 11.868-0.723v-0.12001l-1.626-1.567h-11.447l-0.904-0.241-0.421-0.603-0.181-1.868 0.241-2.109 0.482-0.722 0.602-0.483h-1.084l-0.542 0.182-0.241 0.359-0.301 2.171-0.422 1.808-0.421 0.782-0.663 0.181-3.855 0.18-7.049-0.361h-1.205l-0.181 0.12-0.181 0.061z" fill="#fff" fill-rule="evenodd" stroke="#000" stroke-linejoin="bevel" stroke-miterlimit="2.414" stroke-width=".72"/>
   <path d="m216.31 228.97l10.724-0.12h0.3l0.061 0.242h-9.217l-1.868-0.122z" fill="#fff" fill-rule="evenodd" stroke="#000" stroke-linejoin="bevel" stroke-miterlimit="2.414" stroke-width=".72"/>
   <path d="m241.91 233.91l1.445 1.266 0.242-0.242 0.301-3.915-0.542-0.723-1.205-0.663h-0.24l-0.181 1.807v1.566l-0.061 0.422 0.241 0.482z" fill="#fff" fill-rule="evenodd" stroke="#000" stroke-linejoin="bevel" stroke-miterlimit="2.414" stroke-width=".72"/>
   <path d="m240.23 229.69l-4.82-0.241-3.675-0.12h-0.964l-0.18 0.12 0.542 0.241 0.843 0.242 0.603 0.723v0.54201l0.242 0.603 0.963 0.481 1.264 0.122h1.627l0.963 0.36 1.084-0.18 0.964-0.302 0.783-0.481 0.241-0.481 0.06-0.784-0.181-0.602-0.359-0.243z" fill="#fff" fill-rule="evenodd" stroke="#000" stroke-linejoin="bevel" stroke-miterlimit="2.414" stroke-width=".72"/>
   <path d="m294.8 218.91h-3.854l-3.556 0.843-3.132 1.928-2.289 2.469-1.688 3.072-0.724 5.061 0.242 3.132 1.205 3.374 1.747 2.291 2.229 1.866 2.229 1.386 3.736 0.783 3.854-1.506-0.24-11.866 0.06-8.857 0.181-3.976z" fill="#fff" fill-rule="evenodd" stroke="#000" stroke-linejoin="bevel" stroke-miterlimit="2.414" stroke-width=".72"/>
   <path d="m290.83 218.91l-0.241 9.338 0.362 17.048" fill="#fff" fill-rule="evenodd" stroke="#000" stroke-linejoin="bevel" stroke-miterlimit="2.414" stroke-width=".72"/>
   <path d="m243 230.9l50.725-1.266 0.783-0.182 0.903 0.241 0.241 0.242 0.482 0.723v1.085l-0.302 0.541-0.664 0.481-0.541 0.062-51.327 0.723-0.542-0.242-0.301-0.543v-1.022l0.301-0.543 0.242-0.3z" fill="#fff" fill-rule="evenodd" stroke="#000" stroke-linejoin="bevel" stroke-miterlimit="2.414" stroke-width=".72"/>
   <path d="m288.18 222.1l-1.387 0.663-1.625 1.506-1.146 1.325-0.782 1.626-0.361 1.326" fill="#fff" fill-rule="evenodd" stroke="#000" stroke-linejoin="bevel" stroke-miterlimit="2.414" stroke-width=".72"/>
   <path d="m282.52 233.91l0.362 2.291 1.144 2.229 1.266 1.626 2.049 1.506 1.386 0.603" fill="#fff" fill-rule="evenodd" stroke="#000" stroke-linejoin="bevel" stroke-miterlimit="2.414" stroke-width=".72"/>
   <path d="m279.32 229.93l-0.301 0.18-0.242 0.483-0.242 0.602v1.084l0.303 0.422 0.24 0.242 0.242 0.06" fill="#fff" fill-rule="evenodd" stroke="#000" stroke-linejoin="bevel" stroke-miterlimit="2.414" stroke-width=".72"/>
   <path d="m188.96 305.29h3.614l2.771 0.421 3.614 1.927 2.108 1.686 1.446 1.688 1.145 3.073 0.542 2.892-0.362 3.373-1.084 3.132-1.626 2.411-1.146 1.324-0.903 0.663-3.555-6.567-2.951-6.807-2.289-5.663-1.324-3.553z" fill="#fff" fill-rule="evenodd" stroke="#000" stroke-linejoin="bevel" stroke-miterlimit="2.414" stroke-width=".72"/>
   <path d="m234.5 317.58l-1.385-2.891-0.542-1.506-0.301-1.326 0.121-0.664 0.422-0.481 0.481-0.18h27.229l0.663 0.18 0.542 0.783 0.362 0.603 1.867 7.35-0.06 0.903-0.844 0.3h-18.856l-9.699-3.071z" fill="#fff" fill-rule="evenodd" stroke="#000" stroke-linejoin="bevel" stroke-miterlimit="2.414" stroke-width=".72"/>
   <path d="m235.53 315.3l-44.64-1.749-1.084 0.121-0.421 0.361-0.421 0.663-0.061 0.603v0.54199l0.061 0.481 0.421 0.361 0.361 0.18 0.903 0.182 48.134 1.384-3.253-3.129z" fill="#fff" fill-rule="evenodd" stroke="#000" stroke-linejoin="bevel" stroke-miterlimit="2.414" stroke-width=".72"/>
   <path d="m192.57 307.34l2.168 0.423 2.229 0.963 1.627 1.145 1.023 1.144" fill="#fff" fill-rule="evenodd" stroke="#000" stroke-linejoin="bevel" stroke-miterlimit="2.414" stroke-width=".72"/>
   <path d="m201.67 318.49l-0.121 1.324-0.362 1.928-0.481 1.507-0.903 1.143" fill="#fff" fill-rule="evenodd" stroke="#000" stroke-linejoin="bevel" stroke-miterlimit="2.414" stroke-width=".72"/>
   <path d="m204.8 314.03l-0.663 0.24-0.301 0.785-0.181 0.722 0.181 0.663 0.301 0.421 0.301 0.302 0.482 0.241" fill="#fff" fill-rule="evenodd" stroke="#000" stroke-linejoin="bevel" stroke-miterlimit="2.414" stroke-width=".72"/>
   <path d="m244.98 312.94l-10.664 0.422-0.843 0.301-2.108 2.831v0.96402l1.205 4.217 0.663 0.543 0.843 0.422 11.626 1.506h2.109l11.447 0.12 0.541-0.361 2.169-3.072 0.241-1.024v-0.72299l-1.205-4.035-0.542-0.785-0.904-0.24-11.446-0.904-1.807-0.18h-1.325v-0.002014z" fill="#fff" fill-rule="evenodd" stroke="#000" stroke-linejoin="bevel" stroke-miterlimit="2.414" stroke-width=".72"/>
   <path d="m243.96 317.82l0.783 1.145 0.422 1.627 0.301 0.963v1.085l-0.482 0.421-0.422 0.24 10.723 0.302 3.132-0.18 0.362-0.122v-0.47998l-1.206-3.856-0.541-0.903h-0.422l-11.868-0.362-0.782 0.12z" fill="#fff" fill-rule="evenodd" stroke="#000" stroke-linejoin="bevel" stroke-miterlimit="2.414" stroke-width=".72"/>
   <path d="m260.47 315.3l-2.289 2.529v0.42099l0.843 2.59 0.542 1.868 0.421-0.241 1.747-2.891v-0.84399l-0.843-3.132-0.121-0.3h-0.29999z" fill="#fff" fill-rule="evenodd" stroke="#000" stroke-linejoin="bevel" stroke-miterlimit="2.414" stroke-width=".72"/>
   <path d="m242.7 317.46l-10.362-0.603h-0.36101v0.36301l0.301 0.121 9.94 0.361h0.662l-0.18-0.242z" fill="#fff" fill-rule="evenodd" stroke="#000" stroke-linejoin="bevel" stroke-miterlimit="2.414" stroke-width=".72"/>
   <path d="m305.77 308.85l-3.073 2.892-2.649 0.843-1.567 0.843-1.385 1.084-1.627 2.471-0.964 3.012-0.12 3.012 0.781 3.012 1.387 2.109 1.566 1.866 2.471 1.989 3.313 1.807 5.062 0.963 3.071 0.182 1.688-4.156-2.832-6.688-2.529-6.688-1.205-3.977-1.388-4.576z" fill="#fff" fill-rule="evenodd" stroke="#000" stroke-linejoin="bevel" stroke-miterlimit="2.414" stroke-width=".72"/>
   <path d="m302.7 311.74l1.627 4.88 2.23 6.084 3.07 7.289 2.289 4.941" fill="#fff" fill-rule="evenodd" stroke="#000" stroke-linejoin="bevel" stroke-miterlimit="2.414" stroke-width=".72"/>
   <path d="m260.71 317.64l48.616 4.458 0.964 0.12 0.662 0.18 0.302 0.361 0.182 0.843v0.483l-0.301 0.843-0.422 0.18-0.482 0.181-49.58-4.939-0.663-0.301-0.301-0.422-0.181-0.723 0.3-0.783 0.423-0.481h0.48102z" fill="#fff" fill-rule="evenodd" stroke="#000" stroke-linejoin="bevel" stroke-miterlimit="2.414" stroke-width=".72"/>
   <path d="m293.78 320.66l-0.361 0.423-0.24 0.542-0.12 0.603v0.23999l0.181 0.603 0.18 0.24 0.121 0.182 0.181 0.12" fill="#fff" fill-rule="evenodd" stroke="#000" stroke-linejoin="bevel" stroke-miterlimit="2.414" stroke-width=".72"/>
   <path d="m297.4 320.17l0.302-1.204 0.663-1.023 0.724-0.904 0.782-0.723 1.023-0.723" fill="#fff" fill-rule="evenodd" stroke="#000" stroke-linejoin="bevel" stroke-miterlimit="2.414" stroke-width=".72"/>
   <path d="m298.36 326.14l0.662 1.205 1.206 1.266 1.325 1.265 1.808 0.843 1.686 0.603 1.206 0.242" fill="#fff" fill-rule="evenodd" stroke="#000" stroke-linejoin="bevel" stroke-miterlimit="2.414" stroke-width=".72"/>
   <path d="m227.88 362.52l6.446 4.037 5.482 2.049 3.254 0.781 4.036-0.781-0.844-1.266-2.53-1.626-2.29-1.024-3.373-1.084-2.53-0.603-2.952-0.301-4.699-0.182z" fill="#fff" fill-rule="evenodd" stroke="#000" stroke-linejoin="bevel" stroke-miterlimit="2.414" stroke-width=".72"/>
   <path d="m271.13 365.48l-1.386 0.241-0.542 0.843v1.265l4.879 3.795 1.748 0.241 26.688 0.903h0.603l0.663-0.843-0.482-0.783-2.591-3.192-1.085-1.326-1.144-0.723-2.049-0.421h-25.302z" fill="#fff" fill-rule="evenodd" stroke="#000" stroke-linejoin="bevel" stroke-miterlimit="2.414" stroke-width=".72"/>
   <path d="m276.13 369.27l-44.098-2.952-0.542 0.182-0.422 0.301-0.121 0.421-0.06 0.481v0.48099l0.181 0.423 0.422 0.421 0.542 0.12 46.206 2.952-2.108-2.83z" fill="#fff" fill-rule="evenodd" stroke="#000" stroke-linejoin="bevel" stroke-miterlimit="2.414" stroke-width=".72"/>
   <path d="m233.78 364.39h1.505l2.049 0.483 1.928 0.602 1.145 0.542" fill="#fff" fill-rule="evenodd" stroke="#000" stroke-linejoin="bevel" stroke-miterlimit="2.414" stroke-width=".72"/>
   <path d="m246.43 367.34l-0.361 0.12-0.241 0.482-0.06 0.542 0.06 0.421 0.12 0.302 0.242 0.18 0.301 0.241" fill="#fff" fill-rule="evenodd" stroke="#000" stroke-linejoin="bevel" stroke-miterlimit="2.414" stroke-width=".72"/>
   <path d="m281.01 367.7l-9.639 0.663-0.542 0.18-0.542 0.361-1.627 4.638v0.72299l0.361 0.302 3.434 2.53 0.3 0.24 11.688 1.688 2.108 0.242h1.687l12.229-1.808 0.542-0.122 0.664-0.843 0.963-3.854-2.711-3.434-0.362-0.481-0.723-0.362-12.771-0.723h-3.976l-1.083 0.06z" fill="#fff" fill-rule="evenodd" stroke="#000" stroke-linejoin="bevel" stroke-miterlimit="2.414" stroke-width=".72"/>
   <path d="m339.87 368.01l-0.965 3.494-2.409 0.603-1.747 1.085-0.902 1.385 0.361 1.989 1.325 1.083 4.156 1.628 4.699 1.084 3.313 0.362 3.673 0.421 2.653-0.181 0.541-2.891-4.578-2.411-4.76-3.251-5.36-4.4z" fill="#fff" fill-rule="evenodd" stroke="#000" stroke-linejoin="bevel" stroke-miterlimit="2.414" stroke-width=".72"/>
   <path d="m338.9 371.5l1.025 0.843 2.53 1.927 3.556 2.531 3.012 1.748 2.528 1.386 2.229 0.963" fill="#fff" fill-rule="evenodd" stroke="#000" stroke-linejoin="bevel" stroke-miterlimit="2.414" stroke-width=".72"/>
   <path d="m269.92 374.45l2.832 2.411 0.844 0.18 10.482 1.687h3.012l3.013-0.18 9.698-1.446h0.482v-0.362l-2.47-2.771-0.482-0.182-11.566 0.903-1.024 0.182 0.723 1.625 0.844 0.843h-0.54199l-1.024-0.3-0.481-0.723-0.542-0.543-0.604-0.421-1.083-0.24-10.965-0.784h-0.78201l-0.365 0.121z" fill="#fff" fill-rule="evenodd" stroke="#000" stroke-linejoin="bevel" stroke-miterlimit="2.414" stroke-width=".72"/>
   <path d="m299.08 369.33l-0.604 3.252v0.54202l2.169 2.832h0.60199l0.723-3.313-0.964-1.506-1.446-1.748-0.06-0.059h-0.41998z" fill="#fff" fill-rule="evenodd" stroke="#000" stroke-linejoin="bevel" stroke-miterlimit="2.414" stroke-width=".72"/>
   <path d="m285.11 368.61l5.543 0.3 4.879 0.302h1.567l0.481 0.421v0.543l-0.301 0.18-1.024-0.481h-1.146l-1.505 0.481-2.351 0.362-3.313-0.723-3.433-0.603h-3.254l-3.253 0.483h-1.927l-2.168-0.483 4.94-0.18 5.542-0.422 0.723-0.18z" fill="#fff" fill-rule="evenodd" stroke="#000" stroke-linejoin="bevel" stroke-miterlimit="2.414" stroke-width=".72"/>
   <path d="m300.59 371.26l44.82 4.517 4.157 0.543 1.686 0.241 0.662 0.302 0.302 0.601 0.121 0.963-0.242 0.845-0.542 0.241h-0.84296l-50.121-5.423-0.302-0.361-0.422-0.302v-1.325l0.422-0.543 0.302-0.299z" fill="#fff" fill-rule="evenodd" stroke="#000" stroke-linejoin="bevel" stroke-miterlimit="2.414" stroke-width=".72"/>
   <path d="m336.61 374.27l0.301-0.359 0.541-0.302 1.087-0.361" fill="#fff" fill-rule="evenodd" stroke="#000" stroke-linejoin="bevel" stroke-miterlimit="2.414" stroke-width=".72"/>
   <path d="m342.64 379.03l1.446 0.242 1.93 0.241" fill="#fff" fill-rule="evenodd" stroke="#000" stroke-linejoin="bevel" stroke-miterlimit="2.414" stroke-width=".72"/>
   <path d="m333.12 374.45l-0.361 0.24-0.12 0.182-0.241 0.663v1.205l0.241 0.362 0.12 0.24 0.182 0.122 0.302 0.18" fill="#fff" fill-rule="evenodd" stroke="#000" stroke-linejoin="bevel" stroke-miterlimit="2.414" stroke-width=".72"/>
   <path d="m252.88 88.54h-0.48102l-0.302 0.241-0.302 0.363-0.12 0.542 0.12 0.602v0.363l0.302 0.36 0.121 0.122 0.181 0.18" fill="#fff" fill-rule="evenodd" stroke="#000" stroke-linejoin="bevel" stroke-miterlimit="2.414" stroke-width=".72"/>
   <path d="m425.11 128.24l-1.987 1.808" fill="#fff" stroke="#000" stroke-linejoin="bevel" stroke-miterlimit="2.414" stroke-width=".72"/>
   <path d="m431.44 142.28l-2.167 1.989" fill="#fff" stroke="#000" stroke-linejoin="bevel" stroke-miterlimit="2.414" stroke-width=".72"/>
   <path d="m448.54 223.91l-4.096-2.531" fill="#fff" stroke="#000" stroke-linejoin="bevel" stroke-miterlimit="2.414" stroke-width=".72"/>
   <path d="m444.57 244.03l3.675 0.785" fill="#fff" stroke="#000" stroke-linejoin="bevel" stroke-miterlimit="2.414" stroke-width=".72"/>
   <path d="m435.71 314.39l-2.65-2.591" fill="#fff" stroke="#000" stroke-linejoin="bevel" stroke-miterlimit="2.414" stroke-width=".72"/>
   <path d="m428 332.88l-2.35-2.107" fill="#fff" stroke="#000" stroke-linejoin="bevel" stroke-miterlimit="2.414" stroke-width=".72"/>
  </g>
 </switch>
</svg>
