<?xml version="1.0" encoding="UTF-8"?>
<svg viewBox="0 0 367.91721 361.72955" xmlns="http://www.w3.org/2000/svg">
 <g transform="translate(-76.511 -388.28)">
  <path d="m212.14 749.51c-21.595-18.993-47.662-36.276-64.643-57.143-3.9328-4.833 2.9565-12.495-0.42259-19.142-3.5501-6.984-7.4745-17.313-2.1884-23.896 6.5637-8.1732 0.19255-13.289-7.0221-16.733-8.3343-3.9779-8.5558-33.303-17.913-20.945-6.4151 7.4869-28.191 33.856-40.269 26.674-9.4834-9.3715 8.7739-25.784 15.801-31.947 5.9312-5.2017 15.181-12.731 13.099-19.745-0.82487-2.7783-3.2308-6.0305 0.0594-9.27s5.6906-2.3263 6.4557-4.9219c1.9872-6.7412 8.8249-6.038 11.961-11.968 2.749-5.1973 7.7258-8.4694 11.923-11.699 5.0358-3.8749 14.794 1.4014 16.374-6.7651 1.453-6.7714 5.1111-10.785 11.932-13.251 9.1183-3.297 20.332 2.5363 20.975 12.684 0.4801 7.5855-4.6905 16.292-13.121 17.924-4.9426 0.9572-12.113 5.6935-6.5316 11.526 6.1154 10.575 11.032 22.125 14.96 33.582-0.0592 6.4485 0.15146 11.084 6.0376 13.712 4.8522 2.1665 4.6641 9.1767 11.14 11.602 8.0885 3.0287 13.291 11.261 19.251 17.579 2.6116-21.424 14.703-40.186 19.777-60.928 2.9659-9.9382-4.6781-18.82-3.2454-29.032 0.6992-4.9838-8.1825-9.9428-13.213-10.458-7.6728-0.0662-16.026 2.3263-22.962 0.77525-7.5641-1.6916-4.518-14.032-5.1762-20.889-4.7402-4.6794-3.1788-10.689-4.1095-16.611-2.5949-5.2247-6.0875-3.9685-11.302-6.3154-6.4615-2.9085-1.4377-18.185 0.0891-23.583 1.8641-6.5911-2.9173-10.393-3.7876-16.173-1.6727-11.107 0.91225-23.258 3.8927-33.99 12.671-28.715 43.976-45.116 69.188-40.657 55.353 10.581 63.113 59.096 47.991 105.72 3.5154 3.5784 4.2027 16.869 10.342 11.438 5.6277-2.3227 9.2404 6.846 12.849 10.285 2.5778 6.2481 8.749 6.3104 14.277 9.3392 17.025 9.3275 36.24 23.521 47.577 35.456s17.63 18.95 23.538 34.24 13.656 34.424 18.593 52.36c8.9962 32.68 17.001 67.087 19.61 100.94-77.262 0.47619-154.52-0.24733-231.79 0.22886h3e-5 -2e-5z" stroke="#000"/>
 </g>
</svg>
