<?xml version="1.0" encoding="utf-8"?>
<!-- Generator: Adobe Illustrator 23.0.3, SVG Export Plug-In . SVG Version: 6.00 Build 0)  -->
<svg version="1.1" id="Layer_1" xmlns="http://www.w3.org/2000/svg" xmlns:xlink="http://www.w3.org/1999/xlink" x="0px" y="0px"
	 viewBox="0 0 432 288" style="enable-background:new 0 0 432 288;" xml:space="preserve">
<style type="text/css">
	.st0{fill:none;}
	.st1{clip-path:url(#SVGID_2_);}
	.st2{fill:#FFFFFF;}
</style>
<rect id="Artboard1" y="22.5" class="st0" width="432" height="243"/>
<g>
	<defs>
		<rect id="SVGID_1_" x="-2" y="16.5" width="432" height="243"/>
	</defs>
	<clipPath id="SVGID_2_">
		<use xlink:href="#SVGID_1_"  style="overflow:visible;"/>
	</clipPath>
	<g class="st1">
		<g>
			<g id="XMLID_1_">
				<g>
					<path d="M309,87.9c0,14.3-11.6,25.9-25.9,25.9s-25.9-11.6-25.9-25.9c0-18.6,25.9-62.1,25.9-62.1S309,69.2,309,87.9z M269,97
						c4.7,0,8.6-3.8,8.6-8.6c0-12.5-8.5-23.3-7.3-31.5c-2.6,5.9-9.9,19-9.9,31.5C260.4,93.2,264.2,97,269,97z"/>
					<path class="st2" d="M277.6,88.4c0,4.7-3.9,8.6-8.6,8.6c-4.7,0-8.6-3.8-8.6-8.6c0-12.5,7.3-25.5,9.9-31.5
						C269,65.1,277.6,76,277.6,88.4z"/>
					<path d="M266.3,207.2c0,28.9-23.4,52.3-52.3,52.3s-52.3-23.4-52.3-52.3c0-37.1,52.3-123.8,52.3-123.8S266.3,170.1,266.3,207.2z
						 M185.7,225.9c9.6,0,17.3-7.8,17.3-17.3c0-24.9-17.2-46.5-14.7-62.8c-5.2,11.8-19.9,37.9-19.9,62.8
						C168.4,218.2,176.1,225.9,185.7,225.9z"/>
					<path class="st2" d="M203,208.6c0,9.6-7.8,17.3-17.3,17.3c-9.5,0-17.3-7.8-17.3-17.3c0-24.9,14.7-51,19.9-62.8
						C185.8,162.1,203,183.7,203,208.6z"/>
					<path d="M161.7,130.9c0,22.4-18.2,40.6-40.6,40.6c-22.4,0-40.6-18.2-40.6-40.6c0-29.2,40.6-97.2,40.6-97.2
						S161.7,101.7,161.7,130.9z M99.1,145.2c7.4,0,13.4-6,13.4-13.4c0-19.5-13.3-36.5-11.4-49.3c-4,9.3-15.4,29.8-15.4,49.3
						C85.7,139.2,91.7,145.2,99.1,145.2z"/>
					<path class="st2" d="M112.5,131.7c0,7.4-6,13.4-13.4,13.4c-7.4,0-13.4-6-13.4-13.4c0-19.5,11.4-40,15.4-49.3
						C99.2,95.2,112.5,112.2,112.5,131.7z"/>
				</g>
				<g>
				</g>
			</g>
		</g>
	</g>
</g>
</svg>
